<?xml version="1.0" encoding="UTF-8"?>
<svg id="Camada_1" data-name="Camada 1" xmlns="http://www.w3.org/2000/svg" viewBox="0 0 1005.96 827.36">
  <defs>
    <style>
      .cls-1 {
        fill: #262f65;
      }

      .cls-2 {
        fill: none;
        stroke: #1a203c;
        stroke-linecap: round;
        stroke-miterlimit: 10;
      }

      .cls-3 {
        fill: #cfcece;
      }

      .cls-4 {
        fill: #444;
      }

      .cls-5 {
        fill: #1c1c1c;
      }

      .cls-6 {
        fill: #08608d;
      }

      .cls-7 {
        fill: #3c2713;
      }

      .cls-8 {
        fill: #5a3b11;
      }

      .cls-9 {
        fill: #274190;
      }

      .cls-10 {
        fill: #202020;
      }

      .cls-11 {
        fill: #e0ab00;
      }

      .cls-12 {
        fill: #a01915;
      }

      .cls-13 {
        fill: #472e13;
      }

      .cls-14 {
        fill: #31519f;
      }

      .cls-15 {
        fill: #3e65ae;
      }

      .cls-16 {
        fill: #555454;
      }

      .cls-17 {
        fill: #e04577;
      }

      .cls-18 {
        fill: #060707;
      }

      .cls-19 {
        fill: #cc5d16;
      }

      .cls-20 {
        fill: #d32062;
      }

      .cls-21 {
        fill: #2a1b0f;
      }

      .cls-22 {
        fill: #e3d4af;
      }

      .cls-23 {
        fill: #2d2d2d;
      }

      .cls-24 {
        fill: #68b42e;
      }
    </style>
  </defs>
  <g id="LIRA">
    <g id="pé_direito" data-name="pé direito">
      <path class="cls-16" d="M572.15,724.4s5.71,39.81-7.06,46.45-20.43.51-29.11,3.57-11.74,8.17-8.68,15.32c3.06,7.15,13.79,11.23,17.36,9.7s24-14.81,40.85-12.77,27.57,2.17,41.36,13.09,24.51,24.19,32.17,17.04,9.19-10.72,9.19-10.72c0,0,9.7,3.06,13.79-5.62,4.09-8.68-2.55-19.91-13.79-19.91s-45.45,2.55-59.23-13.28c-13.79-15.83-6.98-64.68-6.98-64.68l-29.88,21.81Z"/>
      <path class="cls-23" d="M528.79,783.04s-8.91.7-12.59,4.24c-3.68,3.54-5.5,5.39-3.94,9.36,1.56,3.97,3.25,3.25,3.25,3.25,0,0,2.96-5.13,5.61-8.01s8.86-3.54,9.87-3.11,1.66-5.74-2.21-5.73Z"/>
      <path class="cls-23" d="M658.87,806.75s8.14,3.68,10.39,8.27c2.25,4.58,3.34,6.94.52,10.14-2.82,3.21-4.16,1.96-4.16,1.96,0,0-1.04-5.83-2.55-9.45s-7.13-6.34-8.23-6.28.39-5.96,4.03-4.64Z"/>
      <path class="cls-23" d="M680.4,792.24s8.93-.23,12.96,2.91c4.03,3.14,6.02,4.79,4.89,8.9s-2.89,3.57-2.89,3.57c0,0-3.48-4.79-6.41-7.39-2.94-2.6-9.18-2.6-10.14-2.07s-2.24-5.54,1.6-5.93Z"/>
      <path class="cls-4" d="M668.24,806.08s-.85-8.51-3.4-10.38-11.91-4.26-17.87-5.11-13.96-1.53-17.53-4.43c-3.57-2.89-5.62-4.94-5.62-4.94,0,0,9.7,5.79,13.45,6.47s15.49,1.87,18.72,3.06,8.85,1.02,11.4,2.89,4.93,11.94,4.93,12.95-4.08-.52-4.08-.52Z"/>
    </g>
    <g id="pé_esquerdo" data-name="pé esquerdo">
      <path class="cls-4" d="M445.1,755.83s6.64,5.4,14.12,0,9.19-7.96,8.17-14.77c-1.02-6.81-13.79-27.69-13.79-27.69,0,0-6.97,21.22-8.51,27.35-1.54,6.13,0,15.11,0,15.11Z"/>
      <path class="cls-16" d="M403.47,705.29c-1.58,3.13-3.56,6.11-6.36,8.22-5.97,4.49-17.19,14.13-20.7,25.3-4.86,15.47-3.84,22.62,4.84,25.17s19.94-2.55,19.67-8.68c-.19-4.25-1.23-9.97-1.84-13.08-.3-1.52,0-3.08.85-4.37,3.12-4.75,11.41-15.59,20.64-13.19,11.74,3.06,9.7,6.23,8.17,13.07s-6.64,9.4-4.6,16.04c2.04,6.64,8.68,12.07,12.26,10.89,2.42-.8,6.02-5.52,8.09-8.48.96-1.38,1.26-3.09.89-4.73-.5-2.2-.82-5.72.72-9.42,2.55-6.13,8.51-29.46,8.17-36.77-.68-14.64.89-10.91-9.87-16.62-3.8-2.01-7.69-2.1-10.44-2.05-2.5.05-4.45-1.66-5.59-3.89-.09-.17-.23-.28-.45-.33-2.02-.45-4.27-2.85-6.85,0-4.09,4.51-13.42,14.61-17.61,22.92Z"/>
      <path class="cls-23" d="M380.58,758.23s-5.8,6.8-5.89,11.9-.07,7.7,3.85,9.4,4.6,0,4.6,0c0,0-1.54-5.72-1.71-9.63-.17-3.91,3.75-8.77,4.77-9.19s-2.89-5.23-5.62-2.48Z"/>
      <path class="cls-23" d="M436.85,760.14s-.14,8.93-3.44,12.83-5.03,5.82-9.1,4.51-3.45-3.04-3.45-3.04c0,0,4.93-3.28,7.65-6.1s2.98-9.06,2.49-10.05,5.63-2.01,5.86,1.85Z"/>
      <path class="cls-23" d="M460.61,751.3s2.84,8.47,1.01,13.24-2.81,7.16-7.08,7.28-4.26-1.72-4.26-1.72c0,0,3.56-4.73,5.19-8.3s-.2-9.54-.99-10.3,4.64-3.77,6.14-.2Z"/>
    </g>
    <path id="corpo" class="cls-9" d="M972.75,230.85c31.32-17.7,35.74-45.96,32.16-50.04-3.59-4.09-14.8.68-34.88,10.55-20.09,9.87-104.51,38.81-86.13,31.66,18.38-7.15,59.57-34.72,88.85-60.6,29.28-25.87,36.43-50.72,29.96-57.53-6.47-6.81-55.49,34.72-84.77,53.45-29.28,18.72-59.91,33.02-59.91,33.02,0,0,17.02-13.62,33.7-31.32,16.68-17.7,49.36-55.49,42.55-64-6.81-8.51-75.23,52.43-85.11,60.26-9.87,7.83-68.77,31.32-76.6,49.36-7.83,18.04-30.98,59.57-59.23,89.53-28.25,29.96-103.21,41.07-103.21,41.08-4.93-12.33-4.53-24.65-4.53-24.65,0,0,6.13,7.66,5.36,0-.77-7.66,9.19-26.04,9.19-26.04,0,0-1.53,23.74,6.13,15.32,7.66-8.43,13.02-58.21,13.02-58.21,0,0,6.89,16.85,9.96,12.26,3.06-4.6-3.06-41.36-3.06-41.36,0,0,6.89,15.32,9.19-12.26,1.82-21.85-8.86-62.93-12.99-76,4.68,7.67,18.36,20.57,22.47,23.15,4.88,3.06,5.08-4.6,0-23.74s-41.65-47.49-41.65-47.49c0,0,22.21,10.72,35.23,12.26,13.02,1.53,6.13-4.6-19.91-27.57-7.12-6.28-14.57-9.87-21.42-11.77,8.5-1.56,15.68-4.29,16.06-8.91.77-9.19-19.91-15.32-35.92-19.91-4.53-1.3-9.82-.57-14.9,1.08,7.38-6.28,14.04-13.29,14.81-17.17,1.53-7.66-18.38-3.83-36.77,0-18.38,3.83-44.43,30.64-44.43,30.64,0,0,.77-4.6-7.66-3.83-8.43.77-12.26,7.66-12.26,7.66v-7.66s-17.62,8.43-31.4,25.28-13.79,45.96-13.79,45.96c0,0-34.38,104.17-41.79,112.09-7.4,7.91-12.6,25.79-14.13,35.74-1.53,9.96,13.02-18.38,7.66-5.36-5.36,13.02-.77,36.77,2.3,35.23,3.06-1.53,4.6-9.19,7.66-3.06,3.06,6.13,6.13,32.17,6.13,32.17,0,0-5.36-1.53-6.13.77-.77,2.3,9.96,2.3,1.53,8.43-2.95,2.15-9.2,8.91-16.95,18.78-29.03-8.51-64.76,28.46-76.77,42.16-2.4,2.73-4.32,5.85-5.66,9.23-.68,1.71-1.49,3.46-2.24,4.21-1.7,1.7-7.49,5.45-18.38,14.98s-16,24.85-12.6,28.26,10.55-1.02,10.55-1.02c0,0-21.79,22.13-28.26,40.17s-1.02,23.49,5.79,19.74c6.81-3.74,19.74-26.21,19.74-26.21,0,0-1.7,6.13-4.43,12.94-2.72,6.81-18.04,30.64-23.83,43.57-5.79,12.94-8.85,39.49,0,42.21,6.09,1.87,29.13-29.81,41.22-47.62-7.72,13.34-18.97,35.02-26.24,52.73-10.21,24.85-6.13,42.21-4.43,44.6,1.7,2.38,9.19,0,16-3.4,6.81-3.4,35.4-32.34,35.4-32.34,0,0-19.74,20.43-10.55,22.81,3.73.97,14.51-5.12,27.14-14.2.29,1.93.59,3.82.9,5.69h0s-81.66,46.12-116.9,60.42c-35.23,14.3-54.13,22.98-48,26.55,6.13,3.57,27.06,3.06,27.06,3.06,0,0-20.94,13.79-56.68,30.64-35.74,16.85-94.47,30.64-98.04,32.68-3.57,2.04,1.02,10.72,22.47,10.21,21.45-.51,69.45-1.53,82.72-6.13,13.28-4.6-40.85,20.94-75.57,28.09-34.72,7.15-70.98,11.74-74.55,16.34s-7.66,15.83,24.51,12.77c32.17-3.06,55.15-2.55,91.4-11.74,36.26-9.19,65.36-19.4,65.36-19.4,0,0-42.89,18.89-39.32,27.57s76.6-17.87,85.79-21.96c9.19-4.09,59.74-30.13,59.74-30.13,0,0-56.17,41.36-57.19,52.09-1.02,10.72,90.89-38.3,104.17-46.47s35.23-18.89,35.23-18.89c0,0,20.09-24.81,27.33-31.21.73.75,1.4.45,1.86-1.38.58-.27.96-1.31,1.18-2.93,3.67-7.23,14.03-19.28,20.12-25.01,1.3.31,2.58.6,3.85.87-1.61,4.23-4.23,9.75.39,6.13,7.15-5.62,24.51,5.11,24.51,5.11,0,0,1.64-2.92,4.08-7.78,1.69,0,3.24-.04,4.6-.13,18.71-1.31,41.24-10.81,63.25-24.01h0s.41,5.46,1.95,5.46,4.09-7.4,4.09-7.4c0,0,4.34,16.85,3.06,22.47-1.28,5.62,2.3.51,4.34-3.32s4.09,8.68,2.81,21.96-2.53,15.06.4,15.06,5.99-1.48,7.26-4.7c1.28-3.22,4.85,11.08,6.13,15.67s5.87,3.32,7.91,1.79c2.04-1.53,5.36-6.13,7.66-7.15,2.3-1.02,1.28,5.11,4.09,7.4,2.81,2.3,4.85,2.05,8.94,1.15,4.09-.9,10.21-10.09,11.49-11.88,1.28-1.79,7.15-16.34,7.15-16.34,0,0-4.09,20.17-2.81,24.77s2.81,3.57,5.87-1.79,6.13-18.13,7.66-33.45,1.53-19.4,1.53-19.4c0,0,3.06,11.23,2.3,15.32-.77,4.09,2.81.62,3.06-1.48s.77-36.31,0-52.65c-.77-16.34-1.03-51.37-4.09-55.05,25.78-41.05,35.77-86.36,33.91-118.48,1.8-.6,4.84-1.97,7.88-5.02,3.22-3.22-2.26-21.34-5.94-31.51,5.69,11.24,17.94,32.28,20.58,34.94,3.4,3.43,17.7,8.14,20.77-6.49,1.83-8.75-2.66-22.24-5.99-30.15,7.13,11.48,24.25,33.89,27.1,35.6,3.4,2.04,13.62,2.04,16.34-8.85,1.26-5.04-4.4-18.89-9.9-30.3,12.13,16.62,30.66,32.2,33.39,34.38,3.4,2.72,19.74,7.83,20.77-6.13.56-7.6-11.1-26.51-20.19-39.62,13.17,14.1,32.75,29.43,35.17,30.77,3.06,1.7,10.89,5.79,17.02,2.38,6.13-3.4,6.47-8.85,4.09-15.66-2.38-6.81-32.68-45.96-32.68-45.96,0,0,23.83,25.19,40.17,33.36,16.34,8.17,28.6,9.19,32.34,4.77s-1.02-12.26-7.15-21.79c-6.13-9.53-34.32-35.06-34.32-35.06,0,0,21.38,18.04,32.96,24.17,11.57,6.13,50.04,10.21,56.51,0,5.19-8.2-41.86-41.43-59.18-52.61,11.21,5.35,35.52,14.66,58.84,20.95,30.3,8.17,46.3-15.32,49.36-24.17,3.06-8.85-27.91-9.53-52.09-16.34s-56.85-24.51-49.36-21.11,51.4,9.87,86.13,8.85c34.72-1.02,48.68-24.17,46.98-33.36-1.7-9.19-30.98-2.04-60.6-2.38-29.62-.34-59.91-8.17-59.91-8.17,0,0,4.43,0,29.62-.68s54.13-6.13,85.45-23.83Z"/>
    <path d="M439.95,206.96s5.21-9.47,13.78-9.82,9.85-.21,21.83,7.17,20.3,12.64,29.23,13.91c10.02,1.43,19.95,1.54,22.81.45s-22.61,17.92-29.92,24.05-25.95,24.77-37.6,24.39c-12.53-.41-13.34-2.84-15.41-5.36s-5.11-5.04-2.68-12.13,6.13-14.81,6.38-19.4-2.94-16.98-5.23-19.66-3.18-3.61-3.18-3.61Z"/>
    <path class="cls-11" d="M515.82,145s.85-26.47,26.38-35.15,33.19-4.6,39.83,0,28.09,13.11,30.64,41.53-1.48,51.21-7.1,58.36c-5.62,7.15-16.18,7.85-16.18,7.85,0,0,17.66,10.06,24.3,23.46,6.64,13.4-4.6,36.79-4.6,36.79,0,0-2.55-27.06-19.7-38.39-13.48-8.9-51.28-20.34-51.28-20.34l-1.02-3.57s-15.49,3.23-21.27-16.26-8.39-29.3-3.52-40.73c4.87-11.44,3.52-13.56,3.52-13.56Z"/>
    <g id="bico">
      <path class="cls-5" d="M514.79,151.45s9.19-32.51-24-46.13c-33.19-13.62-62.11,14.92-66.89,23.06-13.06,22.23-21.45,51.66-16.34,74.13,5.11,22.47,9.19,26.55,12.77,26.55s24.51-31.15,29.62-31.15,9.31-3.88,28.6,9.19c27.53,18.66,49.53,11.23,49.53,11.23,0,0-9.86,7.15-26.89,21.45-17.03,14.3-32.73,28.36-45.62,26.04s-16.34-9.7-12.26-17.87c4.09-8.17,7.45-20.98,3.21-31.43-3.03-7.48-6.56-9.57-6.56-9.57l-2.29,2.74s8.52,10.83,4.5,24.55c-4.02,13.72-10.16,19.65-9.57,25.66.64,6.53,6.94,17.19,15.62,21.17,12.26,5.62,32.38,4.74,42.6,1.17s17.36-7.66,23.36-20.43,11.36-24,16.6-28.47,8.81-7.02,8.81-7.02l-2.81-9.96s-10.98,2.81-19.02-12.77c-8.04-15.57-7.28-37.79-6.89-40.09s3.96-12.09,3.96-12.09Z"/>
      <path class="cls-18" d="M447.09,199.3s6.13-4.64,13.62-5.89,10.4-1.77,12.09-1.6-5.28,2.35-9.88,3.73-6.3,2.06-6.3,2.06c0,0-6.81.51-9.53,1.7Z"/>
      <path class="cls-18" d="M485.39,133.08s-5.45,2.04-5.28,6.3c.17,4.26,3.91,5.62,5.28,5.62s6.01-1.9,6.47-6.13c.51-4.77-3.07-11.57-11.75-16s5.28,10.21,5.28,10.21Z"/>
    </g>
    <g id="olho">
      <path class="cls-3" d="M569.01,196.96c-3.84.09-6.26.38-10.47,0-5.24-.48-10.94-.04-16.81-9.83-8.17-13.62,5.11-40.51,12.26-43.57,7.15-3.06,15.32-3.4,22.47,0,7.15,3.4,12.94,7.15,12.94,22.13s-1.23,21.45-9.65,27.01c-4.67,3.09-8.57,4.21-10.73,4.26Z"/>
      <ellipse class="cls-6" cx="568.98" cy="174.66" rx="20.41" ry="22.01"/>
      <ellipse class="cls-10" cx="568.67" cy="174.66" rx="11.05" ry="15.14"/>
      <ellipse class="cls-3" cx="558.62" cy="158.56" rx="6.89" ry="7.18"/>
    </g>
    <g id="lingua">
      <path class="cls-17" d="M487.18,232.09s-.13-5.04-7.53-8.11-11.36-1.15-16.98,6.26-9.19,16.85-3.57,23.11,15.07,6.48,17.15,6.07,20.49-15.88,22.71-17.75,8.79-6.9,8.79-6.9c0,0-2.31-3.63-8.31-3.88s-12.26,1.22-12.26,1.22Z"/>
      <path class="cls-20" d="M487.18,232.09s-6.51,2.61-11.11,7.98-5.62,8.04-5.62,8.04c0,0,.24-4.26,2.61-7.05s7.35-7.12,9.52-8.14,4.34-2.09,4.34-2.09l.26,1.26Z"/>
    </g>
    <path class="cls-14" d="M610.14,336.27s66.77-7.35,101.41-39.27c34.65-31.92,61.97-99.82,68.35-105.7s32.43-24.77,36.51-19.67c4.09,5.11,8.17,17.11,0,30.64-8.17,13.53-15.32,16.09-15.32,16.09,0,0,32.68,5.11,29.36,21.19-3.32,16.09-25.79,12-25.79,12,0,0,13.79,8.68,8.94,15.83-4.85,7.15-19.4,2.04-19.4,2.04,0,0,9.96,9.45,3.57,15.83s-16.34,2.3-16.34,2.3c0,0,10.39,11.2,7.4,15.06-4.34,5.62-19.91-5.36-19.91-5.36,0,0,11.49,13.02,4.6,18.13s-16.09-1.28-16.09-1.28c0,0,6.13,10.98-.26,17.11s-14.04-.77-14.04-.77c0,0,7.4,10.47,1.53,14.55-5.87,4.09-17.36-3.32-17.36-3.32,0,0,.51,10.72-5.11,14.04-5.62,3.32-15.32-5.3-15.32-5.3,0,0,1.28,16.53-2.81,18.83s-14.55-6.89-14.55-6.89c0,0-.26,10.72-5.87,13.02s-14.55-7.4-14.55-7.4c0,0-.26,13.79-5.11,15.57s-14.81-9.96-14.81-9.96c0,0-1.02,8.54-7.15,10.14s-8.17-8.1-8.17-8.1c0,0-1.79,9.96-4.34,10.21s-8.68-15.32-8.68-15.32l-2.04-6.38s6.89,5.87,9.7,4.85-6.13-10.21-6.13-10.21c0,0,5.87,1.02,5.87.26s-9.59-7.91-12.45-12.51c-2.86-4.6-5.65-10.27-5.65-10.27Z"/>
    <path id="asa2" class="cls-9" d="M316.65,385.49s-44.41,37.05-35.94,49.85,16.82-9.16,35.62-14.77,25.7-5.36,25.7-5.36c0,0-11.23,8.94-14.81,18.89s-8.68,12.77-8.68,12.77c0,0,5.87,7.66,16.85,6.13s20.43-9.96,20.43-9.96c0,0-17.62,18.89-11.23,23.23s26.55-9.19,26.55-9.19c0,0-2.3,8.43,2.81,11.74s13.02-1.28,13.02-1.28c0,0-12,9.19-10.47,12.26s21.86-6.16,30.64-13.28,12.51-15.57,12.51-15.57c0,0-8.31,2.81-12.2,0s-6.11-7.92.34-16.29c6.45-8.37,9.56-11.8,9.56-11.8,0,0-12,6.13-18.38-1.53s4.34-13.79,4.34-13.79l-68.02-40.25-18.64,18.19Z"/>
    <path id="asa1" class="cls-15" d="M416.33,350.42s-17.09-18.64-40.93-11.54c-28.26,8.41-56.36,41.49-58.75,46.61s9.3,3.68,14.66,1.12,16.09-10.72,16.09-10.72c0,0-11.23,14.81-2.81,22.98s30.13-5.36,30.13-5.36c0,0-5.87,15.06,1.79,19.91s25.53-5.87,25.53-5.87c0,0-12,11.49-6.13,17.11,5.87,5.62,21.45-1.79,21.45-1.79,0,0-18.38,18.89-13.02,25.53s15.32,2.55,15.32,2.55c0,0-6.38,15.83-10.98,20.68s13.53-5.87,21.19-22.98,16.85-39.83,10.72-58.47-9.45-26.17-24.26-39.77Z"/>
    <g>
      <path class="cls-1" d="M343.94,414.83s-22.91-3.4-46.61,16.86c-21.31,18.21-38.21,43.88-36.12,63.01,2.08,19.13,20.5-15.74,26.21-21.89s27.16-24.28,31.12-25.94,5.74-4.72,8.81-13.4c3.06-8.68,16.6-18.64,16.6-18.64Z"/>
      <path class="cls-1" d="M325.05,569.81c-2.55-2.81-2.3-16.09,4.34-24.26,6.64-8.17,24.77-19.17,24.77-19.17,0,0-6.64,2.78-10.21,0-3.57-2.78,0-14.53,0-14.53,0,0-12.26,12-18.64,6.38-6.38-5.62,3.83-20.94,3.83-20.94,0,0-14.15,9.13-15.83,9.7,2.04-2.55-8.94,6.38-12.26,5.36-3.32-1.02-.77-8.43-.77-8.43,0,0-7.2,10.98-15.34,9.96-8.15-1.02-1.1-29.04-1.1-29.04,0,0-20.22,32.3-23.93,44.18-4.34,13.9-6.36,35.47,0,38.71,6.75,3.44,24.47-22.91,38.88-41.6.52-.68,1.04-1.35,1.54-2.01h0s-24.53,40.54-27.7,59.06c-3.18,18.53-4.3,32.6.34,34.96,4.64,2.36,16.18-3.73,27.36-13.92,11.18-10.19,20.63-22.19,26.25-22.7s17.36-13.65,17.36-13.65c0,0-16.34,4.72-18.89,1.91Z"/>
    </g>
    <path class="cls-15" d="M288.82,471.38s-13.68,36.98-5.19,42.04,16.66-9.49,16.66-9.49c0,0-2.09,4.81-.16,7.83,2.78,4.37,29.02-14.47,29.02-14.47,0,0-11.23,15.32-3.83,20.94s18.64-6.38,18.64-6.38c0,0-3.71,10.79,0,14.53s10.77-.27,10.77-.27c0,0-26.33,15.03-29.43,25.58-2.75,9.36-2.52,16.66-.03,18.3,4.37,2.87,18.69-2.09,18.69-2.09,0,0-11.34,13.04-17.47,13.29s-19.07,17.56-15.74,22.87,48.78-25.83,57.97-33.49c9.19-7.66,32.94-29.11,34.72-50.04s-1.31-28.54-8.68-35.67-7.81-6.95-7.81-6.95c0,0-6.83,3.32-9.47,2.51s-.27-3.95,1.98-6.17,7.51-6.69,7.51-6.69c0,0-9.06,5.26-13.79.68-4.41-4.26-2.03-11.15-2.03-11.15,0,0-19.7,13.4-26.6,9.4s10.75-22.87,10.75-22.87c0,0-13.09,11.22-24.85,9.47-7.36-1.09-10.82-4.75-11.9-6.22,0,0-1.49.8-2.21,1.32-3.75,2.7-12.84,9.64-19.45,15.77-8.34,7.72-8.06,7.42-8.06,7.42Z"/>
    <g id="contornos">
      <path class="cls-2" d="M386.94,477.9s21.1,12.43,16.98,34.01-4.83,27.45-14.98,38.5-23.57,23.23-33.69,30.07-32.65,22.1-40.05,24.2-4.83-5.34-3.6-7.49,8.5-13.57,12.32-14.72,6.06-.73,12.63-7.18c6.56-6.45,32.78-32.98,38.27-40.77s9.19-11.74,9.57-13.91"/>
      <path class="cls-2" d="M343.94,567.9s-16.49,4.4-18.89,1.91-2.91-8.14.48-18.83c3.46-10.91,30.78-25.49,30.78-25.49,0,0-8.94,4.32-12.36.89-2.52-2.52-.36-14.16-.36-14.16,0,0-12.81,11.55-18.28,6.02-6.55-6.63,3.83-20.94,3.83-20.94,0,0-23.72,16.79-28.09,15.06s-.77-8.43-.77-8.43c0,0-8.61,13.58-15.34,9.96-7.27-3.91-2.79-22.54-.65-29.95s4.69-13.11,4.69-13.11c0,0,19.73-16.88,21.61-18.33s7.34-6.32,7.95-5.63,2.23,4.2,7.86,5.26,9.98,1.78,15.98-1.01c6-2.79,12.9-7.51,12.9-7.51,0,0-16.18,17.35-11.35,22.08,4.83,4.73,27.19-8.61,27.19-8.61,0,0-1.36,9.44,2.03,11.15s4.55,1.97,6.29,1.74,6.86-2.08,6.86-2.08c0,0-11.33,9.81-9.82,11.91s15.11-3.36,24.23-8.87c10.72-6.48,18.92-19.98,18.92-19.98-.85.79-8.51,18.12-11.68,21.85-3.22,3.79,13.67-6.43,19.91-20.25s13.58-22.45,13.45-41.37-5.11-37.15-11.36-46.85c-6.26-9.7-16.78-22.85-33.28-25.59s-21.88-.99-37.19,7.45-34.71,29.18-46.29,42.28c-11.08,12.53-34.57,30.99-33.52,42.11s8.71,8.97,12.39,5.29c1.21-1.21,13.86-11.95,22.23-15.48,9.69-4.09,24.17-5.24,27.72-5.18s-7.83,3.84-13.3,15.32c-5.47,11.48-7.06,14.36-10.5,16.29"/>
      <path class="cls-2" d="M292.07,435.87s-16.71,15.8-22.88,29.14-11.44,28.14-5.91,34.14,17.31-17.4,19.48-19.87,6.21-8.45,6.21-8.45"/>
      <path class="cls-2" d="M283.51,486.22s-15,21.6-19.51,32.79-8.81,23.72-8.41,32.27,1.82,15.94,4.31,16.47,10.02-2.69,18.49-14.58c8.47-11.89,24.81-34.39,28.89-38.48s10.38-9.53,10.38-9.53"/>
      <path class="cls-2" d="M299.98,524.74s-20.85,38.31-24.66,50.56-6.98,33.33-5.09,38.41c2.22,5.99,4.29,5.07,6.29,4.81,2.01-.26,12.82-4.23,20.26-11.05,7.44-6.82,22.22-20.8,22.22-20.8"/>
      <path class="cls-2" d="M329.13,497.3s23.96-22.57,27.53-26.91,8.01-9.77,8.01-9.77"/>
      <path class="cls-2" d="M300.28,503.94s-1.19-5.09,1.23-13.51,10.85-21.45,10.85-21.45"/>
      <path class="cls-2" d="M343.59,512.22s11.81-11.21,16.03-16.01,5.06-6.38,5.06-6.38"/>
      <path class="cls-2" d="M378.35,529.66s-10.38,11.07-17.11,5.7-5.19-9.62-3.4-12.77,12.17-13.7,12.17-13.7"/>
      <path class="cls-2" d="M420.18,450.89s-10.34,2.39-14.17-.85-1.86-9.86,1.43-14.85,9.27-11.65,9.27-11.65c0,0-15.36,5.74-19.92,1.8s-.01-10.23,0-10.81,3.94-6.24,3.94-6.24c0,0-17.51,8.8-22.52,5.91s-5.62-5.06-5.64-10.42,2.14-10.28,2.14-10.28c0,0-18.28,11.49-25.53,7.69-7.25-3.8-8.28-7.67-7.69-11.09s5.42-14.02,5.42-14.02c0,0-12.82,10.17-19.05,11.79s-9.49.95-10.92.13-.85-2.31-.85-2.31"/>
      <path class="cls-2" d="M382.15,436s-.85,8.17,3.15,11.4,14.47.85,16.09-2.47c1.62-3.32.09,4.09,1.87,6.38s7.15,1.96,7.15,1.96"/>
    </g>
    <path class="cls-1" d="M1003.78,180.76c-5.5-3.94-23.71,6.04-50.17,17.88-13.86,6.21-42.18,15.7-65.51,23.18,0,0,4.05-2.33,9.63-5.34,5.59-3,47.72-32.73,72.48-51.78,24.76-19.05,32.46-42.94,33.68-47.54,1.22-4.6.67-11.28-3.81-12.51-4.47-1.23-22.42,11.44-31.26,17.56-8.84,6.12-40.86,29.62-56.01,39.53-10.18,6.66-37.5,20.26-52.32,27.6,5.1-3.83,10.18-8.22,15.04-13.3,29.71-31,55.76-63.82,58.41-71.48,2.65-7.67,0-10.66-3.28-9.16-3.27,1.5-14.1,7.83-32.17,20.24s-39.8,35.01-49.33,40.64c-9.52,5.63-31.64,16.94-31.64,16.94,0,0,6.48,11.43,2.43,21.04-4.05,9.62-11.91,18.95-11.91,18.95,0,0,23.41-3.83,47.87-20.59,11.13-1.86,34.31-.51,33.99,10.4-.38,13.02-38.1,30.09-38.1,30.09,5.25-1.22,46.25-4.29,39.89,10.3-5.88,13.49-45.03,11.93-52.54,11.5-1.26-.17-1.97-.27-1.97-.27,0,0,.26.07.72.19,6.08,1.62,48.68,13.34,43.7,23.3-5.36,10.72-48.89,7.02-48.89,7.02,0,0,.34.21.94.58,5.94,3.7,37.76,24.28,31.74,37.72-6.19,13.81-44.99-3.01-50.22-5.35-.38-.18-.59-.27-.59-.27,0,0,25.91,20.04,17.62,34.34-7.48,12.89-36.53-1.29-42.18-4.21-1.31-.87-1.74-1.09-.97-.51,4.21,3.19,17.62,20.3,6.89,31.28-8.11,8.3-21.52-3.4-27.58-9.6-1.21-1.42-2.13-2.5-2.65-3.11.11.19.24.42.38.69-.56-.63-.87-1-.87-1,0,0,.41.57,1.14,1.54,2.69,5.62,8.01,22.53-1.06,29.74-10.6,8.43-34.69-17.18-34.69-17.18,0,0,13.7,20,3.66,29.7-10.04,9.7-30.38-20.43-30.38-20.43l-.15.22s7.06,21.28-4.09,27.57c-11.15,6.3-25.35-18.09-25.35-18.09h0c-.7-1.45-1.14-2.36-1.2-2.51-.43-1.02,5.67,23-3.49,26.55-12.07,4.68-22.68-9.37-24.36-11.73-.09-.16-.18-.28-.24-.34-1.7-1.7,1.28,10.71-.43,13.78s-2.72,1.36-2.72,1.36c0,0,4.87,13.64,6.13,23.83,1.26,10.19.09,10.63.09,10.63,0,0,4.86-1.9,7.88-5.02,3.26-3.36-2.67-23.28-7.05-35.35,2.44,5.55,5.67,12.54,8.69,17.83,5.87,10.3,13.37,28.24,25.04,24.3,10.33-3.49,9.68-15.65,9.18-19.83-.53-4.41-3.73-12.83-7.34-21.27,6.45,9.78,22.23,30.41,25.59,34.38,3.96,4.69,8.22,3.85,13.83,1.21s5.45-9.36,2.86-19.43c-.81-3.16-3.38-9.04-6.52-15.64,0,0,0,0,0,0,3.43,5.27,25.75,25.64,28.43,28s13.85,11.35,21.43,4.2.55-16.96-8.38-33.51c-1.83-3.4-4.23-7.11-6.88-10.86.01.02.03.04.04.06,5.14,6.97,33.16,28.53,33.16,28.53,0,0,13.38,7.77,19.96.17s.83-14.21-12.12-33.57c-3.23-4.83-6.85-9.77-10.44-14.45h0c8.56,8.41,27.24,19.77,39.75,25.77,12.52,6,22.3,3.17,24.11.53,1.81-2.63,1.9-10.64-15.63-31.05-6.44-7.5-14.75-15.04-22.47-21.42,11.8,8.65,24.88,17.96,29.83,20.53,9.88,5.12,29.16,5.81,36.98,5.87s18.89-2.69,19.34-7.67c.45-4.98-11.69-16.34-39.3-37.18-6.69-5.05-12.69-9.27-17.94-12.78,13.52,5.33,36.89,13.89,45.97,16.78,12.09,3.85,18.53,4.5,26.64,4.53,8.12.02,22.09-8.51,27.42-15.58,5.33-7.07,7.43-9.78,4.23-14.32-3.2-4.53-35.23-7.59-57.42-14.29-13.99-4.22-31.91-12.94-43.24-18.81,6.53,3.03,45.05,7.14,61.99,8.27,16.95,1.13,30.9.04,38.99-1.34,8.09-1.38,10.27-3.45,21.08-10.07s11.99-19.49,11.87-21.51c-.13-2.02-2.11-7.17-17.17-4.63-15.06,2.54-52.98,2.69-75.39-.49-5.05-.72-10.25-1.45-15.29-2.15h0c8.3-.18,29.65-4.72,43.86-6.6s29.58-8.36,49.41-16.34c19.82-7.97,31.33-23.66,34.34-27.88,3.01-4.22,11.84-23.64,6.34-27.58Z"/>
    <g id="RABO">
      <path class="cls-1" d="M202.71,686.59s-37.55,21.58-49.41,27.15-27.25,12.3-42.26,17.16-62.35,17.81-63.63,19.46.65,5.37,6.58,7.68,31.65,3.25,55.47.82,41.52.3,86.8-22.85c45.28-23.15,89.36-47.83,99.91-57.36s22.82-28.09,22.82-28.09c0,0-56.69,28.26-78.48,32.51s-37.81,3.51-37.81,3.51Z"/>
      <path class="cls-1" d="M338.05,679s-63.26,66.58-112.85,85.28c-49.6,18.7-80.95,35.18-80.39,42.01s68.05-10.19,99.67-27.3c31.62-17.1,66.51-31.74,82.85-44s48.17-38.64,49.53-40.68-17.02-9.87-23.66-11.23-15.15-4.09-15.15-4.09Z"/>
      <path class="cls-14" d="M319,650.57s-7.16,16-5.8,23.83,36.3-15.15,40.96-22.64,3.15-7.49,3.15-7.49l7.13,7.83s-2.72,4.94-2.21,10.72c.51,5.79,2.21,7.83,2.21,7.83,0,0-8.34-4.6-17.02.68s-6.2,6.23-16.12,14.52c-9.92,8.29-38.52,40.63-77.33,65.14-21.11,13.34-72.29,32.13-87.38,34.87s-46.52,14.85-67.73,17.99-88.07,10.68-94.57,5.64-3.65-9.51-1.24-11.07,12.11-5.04,18.74-5.72,32.85-6.47,46.3-8.68,60.09-16.51,72.17-22.81,41.36-18.04,49.19-21.96,48.85-24.68,56.17-29.11,44.26-25.7,48.17-29.28,23.34-26.04,25.2-30.3Z"/>
      <path class="cls-14" d="M376.86,694.32s11.23.85,14.98,4.43c3.74,3.57,6.62,11.32,8.25,12.3s-9.2,5.05-16.43,15.89c-7.22,10.83-8.98,16.49-8.98,16.49,0,0-52.97,28.33-67.09,34.13s-62.5,30.79-69.12,31.23-6.03-1.41-3.63-4.65,18.6-19.59,30.69-29.18,19.89-16.92,25.02-19.41,25.38-12.87,30.32-16.28c4.94-3.4,23.49-17.02,27.74-21.11s28.26-23.83,28.26-23.83Z"/>
    </g>
    <g id="CONTORNO2">
      <path class="cls-2" d="M451.99,693.83s15.79-25.78,15.67-29.29,3.96,3.97,2.94,7.04,6.13-12.26,5.45-17.02-.68-13.96-2.21-18.04,3.96,4.98,3.7,8.04,4.09-20.68,1.02-32.81-7.66-20.55-18-23.74-10.47,0-10.47,0"/>
      <path class="cls-2" d="M520.56,658.21s8.94-11.62,13.66-13.91,4.47.26,3.19,2.43-7.02,7.02-4.47,7.15,10.72-13.02,14.55-15.32-1.91,5.36,0,5.74,40.09-36.89,44.04-43.53c3.96-6.64-9.32,18.13-9.32,18.13,0,0,21.7-22.47,24.51-29.11,2.81-6.64,1.66,2.68,1.66,2.68,0,0,6.58-12.29,10.89-21.72s9.06-17.46,9.06-17.46"/>
      <path class="cls-2" d="M410.13,623.62s-3.4,6.27-5.11,4.07,4.6-19.73,9.02-24.67,10.89-11.4,10.38-13.11-9.19,9.36-11.91,9.53-4.43-3.91,5.79-14.13,21.28-22.78,21.45-26.79c.17-4.02,0-11.85,0-11.85,0,0-3.57,10.21-6.47,9.7s-6.47-8-3.4-16.17,16.51-23.66,18.38-28.77,4.26-12,3.23-10.42-5.23,7.36-8.91,5.32-1.3-15.15,1.25-19.91,16.17-19.11,18.04-25.81c1.87-6.7,5.79-16.74,3.91-17s-6.47,8.42-9.87,6.21-2.72-12.43-.68-17.02,11.05-21.28,11.05-21.28"/>
      <path class="cls-2" d="M637.56,530.4s-1.55-26.11-6.32-41.43-16.51-42.55-20.09-46.47,3.57,5.45,4.94,3.57-1.19-11.91-2.21-17.87-15.83-35.4-18.04-39.32c-2.21-3.91-.34-4.77,1.53-4.09s4.94,1.11,4.26-.21-10.89-10.51-12.26-15.62c-1.36-5.11,0-5.62,2.72-4.94s5.28-.51,2.72-5.11-3.74-6.81-4.77-13.96-5.45-6.64-6.81-4.94-4.43,8.51-5.79,3.74c-1.36-4.77.17-17.36,3.23-24.17,3.06-6.81,4.09-10.38,5.11-9.36s.85,6.13,3.74,5.62,10.04-6.98,12.94-15.15,3.91-15.32,5.79-12.77,5.18,3.91,7.52-4.77c2.35-8.68,5.41-23.49,5.24-32.51-.17-9.02-2.04-13.79,1.02-12.26s2.55,5.45,4.43,5.45,2.55-3.23,2.72-9.87c.17-6.64-.85-9.19-.17-10.55s2.89,3.06,5.11,4.94.85-7.32-1.36-17.7-4.6-27.74-9.7-34.72-6.73-8.85-9.66-11.4"/>
      <path class="cls-2" d="M625.67,381.15s2.77,4.98,3.85,4.7,3.09-4.49,3.77-7.57c.68-3.09.57-2.64.57-2.64,0,0,1.69,8.14,6.62,8.27s7.31-5.6,7.31-5.6c0,0,1.23-3.25,1.39-4.7s2.4,3.88,8.06,7.62c5.66,3.74,7.15,2.44,8.3,1.2s2.35-4.65,2.92-7.91.64-6.55.64-6.55c0,0,5.32,5.39,8.65,6.69s5.48,1.3,6.72.3,3.03-2.53,3.8-5.53,1.25-7.07,1.25-7.07c0,0,5.08,4.43,8.12,5.7s5.18,2.11,6.44,1.19,2.23-3.23,2.52-5.77.5-7.35.46-8.76-.18-4.3-.18-4.3c0,0,3.65,3.42,6.93,4.61s4.98,2.01,7.1,1.23,4.18-2.5,5.02-5.41,1.25-5.2,1.32-6.47.06-2.7.06-2.7c0,0,4.1,2.52,6.86,3.33s6.17,1.83,8.22.98,3.4-1.06,4.42-4.31-2.17-8.74-2.17-8.74l-1.48-2.46s5.05,3.96,8.89,3.23,6.23-3.36,6.86-4.76,1.93-4.5.86-8.27c-1.08-3.76-2.33-6.56-2.33-6.56,0,0,5.01,3.42,8.7,3.2s5.46-.31,8.29-2.74.87-6.91.28-8.24-5.77-9.07-5.77-9.07c0,0,9.75,6.45,13.8,6.7s4.43.51,6.11-1.34-.9-6.31-1.49-7.27-5.91-7.8-5.91-7.8c0,0,7.94,2.34,11.77.54s5.23-2.96,6.44-5.93c1.21-2.97-1.35-7.42-1.76-8.08s-3.69-4.66-3.69-4.66c0,0,7.6,2.52,12.32,1.65s6.98-2.63,7.85-5.26-.21-5.82-2.97-8.54-6.56-5.62-6.56-5.62c0,0,11.7.91,16.28-1.36s7.61-4.34,8.8-8.79c1.19-4.45.82-7.47-1.83-11.11-2.64-3.64-9.87-7.19-14.19-8.69s-12.81-3.35-12.81-3.35c0,0,5.1-1.44,11.5-11.14s7.96-14.2,8.21-15.51.78-6.45.14-8.95-2.85-9.91-4.53-11.13-2.44-1.08-5.91-.13-9.58,4.68-14.4,7.69c-4.81,3.01-11.89,8.41-13.88,10.11s-2.65,1.63-4.95,5.7c-2.3,4.07-7.51,13.97-8.77,16.41s-7.23,13.97-8.97,17.09c-1.74,3.11-10.26,18.33-11.48,20.37s-8.35,14.17-10.84,17.06-8.96,12.6-11.11,15.24-7.6,9.52-12.81,14.2c-5.22,4.68-11.66,9.97-16.47,12.72-4.81,2.75-17.4,9.6-24.02,12.12s-18.02,6.73-21.4,7.39-16.81,4.58-21.9,5.43-19.35,3.24-19.35,3.24c0,0,4.07,9.09,7.22,12.35s10.95,9.83,10.82,10.29-5.62-.08-5.62-.08c0,0,7.29,7.49,6.43,9.7s-10.1-4.07-10.1-4.07c0,0,2.31,9.56,6.78,16.7Z"/>
      <path class="cls-2" d="M808.06,213.23s25.88-5.86,40.47-15.87,24.68-17.23,48.94-45.19,37.03-45.32,37.54-50.94c.51-5.62-1.61-7.22-4.33-5.82s-32.05,19.61-39.23,25.42c-7.18,5.81-27.59,24.36-34.4,29.57s-24.54,15.68-31.38,18.61c-6.84,2.93-9.27,2.61-9.27,2.61"/>
      <path class="cls-2" d="M860.5,189.36s29.58-14.07,39.53-20.2,32.71-21.09,48.8-32.63c16.09-11.54,41.6-30.04,46.43-30.95s7.88-1.43,8.92,4.39c1.04,5.82-1.47,18.62-14.77,35.33s-32.46,29.62-46.14,39.47c-13.68,9.85-55.18,37.07-55.18,37.07,0,0,35.02-11.16,48.75-16.52s33.34-13.23,41.66-18.06,22.38-9.35,25.26-6.49,2.4,14.09-6.34,27.58c-8.73,13.49-23.52,22.67-30.52,25.92s-30.05,12.98-37.66,14.74-33.1,6.37-37.83,7.17-21.59,2.98-21.59,2.98c0,0,19.93,3.28,30.8,3.7s23.49,1.22,35.3.74,23.07-1.36,27.75-2.25,9.65-.31,11.74,1.33,3.91,4.41.77,11.82c-3.15,7.41-5.35,9.75-10.38,13.43s-12.02,8.27-17.55,9.32-17.77,2.64-26.54,2.54-11.15.11-23.05-1-27.93-2.87-31.76-3.38-21.55-3.27-23.15-4.35,15.93,8.05,22.47,10.84c6.53,2.79,13.56,6.08,21.71,8.24s24.06,5.88,26.12,5.98,16.07,3.04,19.79,3.98,9.49,2.08,10.59,4.05,2.33,2.85.71,6.94c-1.62,4.09-6.43,9.48-10.06,12.57s-13.48,9.68-22.3,10.38-20.72-2.59-25.7-4.23-26.88-9.47-28.8-10.18-18.11-6.89-18.11-6.89c0,0,16.66,11.75,21.89,15.77s18.41,14.34,22.96,18.55c4.54,4.21,10.08,9.63,11.49,12.48s1.05,4.92-.96,6.24-7.26,4.17-16.62,4.56-24.01-1.24-29.47-2.9-7.69-2.35-11-4.47-27.2-19.02-27.2-19.02c0,0,20.68,16.72,28.53,28.88,7.85,12.16,11.74,17.57,10.04,23.19-1.7,5.62-16.28,3.27-19.25,1.98s-18.22-8.76-23.41-12.04-21.67-15.83-21.67-15.83c0,0,17.88,24.46,21,30.42,3.12,5.96,6.65,11.46,1.54,17.59s-16.25,2.73-19.96-.17-16.38-13.03-19.15-15.38-14.01-13.15-14.01-13.15c0,0,15.96,25.33,17.64,32.38s-.04,10.28-3.35,12.7-10.05,2.25-13.52,0-13.32-10.67-17.98-15.1-17.44-17.88-17.44-17.88c0,0,9.24,18.48,8.24,25.79-1,7.31-1.68,8.51-6.61,10.17s-8.09,1.96-10.56-.83c-2.47-2.79-15-19.11-16.87-21.66s-9.95-14-9.95-14c0,0,7.51,16.43,7.51,23.25s-.89,13.84-6.83,16.71c-5.93,2.87-9.04,2.05-13.7-1.8s-11.95-17.7-14.25-22.03c-2.3-4.33-8.31-17.16-8.31-17.16,0,0,7.36,22.09,7.73,28.02.37,5.94.48,7.16-2.94,9.24s-5.62,3.1-5.62,3.1c0,0,.72-3.5.25-7.54s-2.61-14.94-3.98-19.19-2.49-7.14-2.49-7.14c0,0,1.34.47,2.16-1.08s1.04-5.2.8-9.21-.68-6.64.18-5.45,4.34,6.29,9.28,9.4c4.94,3.11,9.59,4.61,13.61,3.22s6.06-3.33,6.65-9.89-1.46-17.2-1.46-17.2c0,0,5.65,9.64,8.71,12.82,3.06,3.18,8.66,8.91,13.77,8.81s8.02-4.45,8.68-6.1,2.21-5.19,1.66-10.42-2.17-12.09-2.17-12.09c0,0,3.26,4.44,6.62,8.21s10.35,11.18,14.07,12.48,7.6,2.51,9.85-.49,3.49-4.71,3.67-9.74-2.92-12.06-4.11-14.32-3.23-5.64-3.23-5.64c0,0,8.66,8.59,13.25,11.66s13.8,8.97,18.76,6.89,6.7-6.74,7.4-9.85-.07-10.38-.86-13.19-3.07-8.61-3.07-8.61c0,0,5.54,6.12,9.34,8.78s11.91,8.24,17.18,5.5,6.46-7.37,7.27-10.25c.81-2.88-1.19-10.21-3.22-13.55s-6.65-9.23-6.65-9.23c0,0,5.03,3.22,12.95,5.69s17.2,5.36,24.14,2.8,6.75-10.56,6.72-11.06.11-6.62-5.52-13.37c-5.63-6.75-13.13-13.92-13.13-13.92,0,0,13.9,5.74,19.46,7.27s16.76,4.37,22.99,3.17,7.78-5.09,7.78-5.09c0,0,2.22-5.63-1.5-10.89-3.72-5.26-9.22-11.86-16.59-17.28-7.37-5.42-14.6-10.13-14.6-10.13,0,0,21.37,1.22,29.42.08s18.09-2.47,19.64-7.5-11.41-11.52-11.41-11.52c0,0-11.42-4.9-16.53-6.56s-14.69-4.73-14.69-4.73c0,0,22.06,1.13,33.5-1.47s17.19-5.63,19.04-10.03-.7-7.4-4.06-8.57-9.24-2.97-17.75-2.83-18.08,1.1-18.08,1.1c0,0,16.33-8.1,23.97-13.48,7.64-5.39,12.84-10.6,13.98-15.35s-3.24-7.81-4.85-8.6-6.84-3.29-13.91-3.51-15.08.46-15.08.46l4.57-3.28Z"/>
      <path class="cls-2" d="M408.77,630.25c-4.94,3.4-9.19,14.98-10.55,17.19s-5.28-2.38-6.98-10.89-2.38-14.13-5.28-1.36,1.02,40.17,2.72,42.04,4.26-10.38,2.89-5.28-.85,23.32,1.02,23.66,4.94-10.89,3.57-3.06-1.64,9.57-5.56,5.27-13.76-3.5-13.76-3.5c0,0-24.06,20.66-28.88,24.4s-24.12,18.41-30.4,22.56-21.21,11.61-27.82,14.83-23.19,18-27.11,21.17-33.17,27.53-29.49,31.56c3.68,4.03,45.2-17.59,66.21-27.63s75.3-37.79,75.3-37.79c0,0,4.62-12.53,10.7-18.85,6.08-6.32,14.88-12.76,14.88-12.76,0,0-4.9-9.98-7.9-12.3"/>
      <path class="cls-2" d="M376.86,694.32s-2.79-5.47-17.92-9.53-20.89-5.79-20.89-5.79c0,0-36.32,35.42-45.74,43.29s-33.37,27.28-44.91,32.53c-11.54,5.25-54.03,24.42-64.38,26.77s-37.36,18.95-38.22,23.67,29.57-.76,47.8-6.32c18.24-5.56,34.69-10.99,51.87-19.94,17.18-8.95,41.53-20.61,41.53-20.61"/>
      <path class="cls-2" d="M177.02,783.21s-30.43,8.03-39.88,10.86-27.81,8.01-33.45,8.95-34.54,4.65-45.91,5.67-43.54,3.32-48.65,2.49-8.15-5.02-8.47-6.83-.92-5.44,6.58-7.86,28.02-6.14,33.91-7.32,34.92-5.97,43.45-9.12,29.61-8.12,38.63-12.04,35.71-15.76,41.39-18.05,27.9-12.24,37.16-16.95,28.42-15.05,37.95-19.6,17.94-9.76,23.95-13.62,16.21-10.6,21.7-14.17,7.56-3.44,12.94-9.53,20.67-25.53,20.67-25.53c0,0-8.34,21.06-5.65,24.3s14.68-3.45,16.89-4.75,14.83-8.87,20.42-14.48c5.59-5.62,6.65-11.36,6.65-11.36l7.13,7.83s-2.52,4.13-2.25,8.39,2.25,10.16,2.25,10.16c0,0-5.94-3.86-11.69-1.46s-6.71,1.63-14.69,9.8"/>
      <path class="cls-2" d="M161.56,750.87s-19.4,5.85-38.68,6.95-30.23,3.08-44.69,2.47-24.72-.79-28.83-4.65-2.49-4.89-1.39-5.72,28.77-8.26,30.19-9.27,35.22-10.74,41.51-12.91,27.56-10.94,33.62-13.98,39.31-21.39,41.8-22.81,7.61-4.34,7.61-4.34c0,0,12.25.44,23.71-1.29s15.62-1.6,36.27-9.38,36.42-15.79,41.02-17.98,15.28-7.38,15.28-7.38"/>
      <path class="cls-2" d="M555.84,36.57s15.15-5.28,19.91-8.51,15.56-12.86,18.34-17.35,3.59-7.23,2.52-8.04-2.56-2.97-10.66-1.86-25.81,2.46-35.03,7.92-22.79,16.25-27.76,20.26c-4.96,4.01-7.2,6.88-7.2,6.88"/>
      <path class="cls-2" d="M584.32,21.82s6.45-1.59,9.46-1.11,13.04,3.29,17.6,4.92,16.49,6.16,19.3,9.8c2.81,3.64,2.88,5.95,1.83,7.86s-9.56,6.78-15.39,6.87-17.83-.55-25.75-2.21-16.6-5.87-16.6-5.87"/>
      <path class="cls-2" d="M618.23,50.47s7.19,1.91,13.72,6.41,18.48,15.71,21.23,18.06,12.44,11.33,11.64,13.63-9.44.42-9.44.42c0,0-10.69-2.77-16.17-4.94s-15.98-6.82-15.98-6.82c0,0-10.59-4.07-14.47-6.45"/>
      <path class="cls-2" d="M624.52,78.26s10.54,8.25,17.85,15.75c7.31,7.5,19.61,20.19,21.87,28.71,2.26,8.53,5.92,22.6,3.51,25.88-2.4,3.28-10.02-5.86-13.44-9.35s-10.7-11.67-11.92-13.95-12.37-17.59-14.41-22.79"/>
      <path class="cls-2" d="M446.58,331.34s2.94-4.6,3.06-8.3-2.68-6.51-2.68-10.09,4.6-7.66-.64-10.6-8.04-15.45-9.19-13.15,0,8.68-1.4,9.32-4.21-3.45-9.32-11.62-2.3-8.3-3.96-5.23.89,9.45,0,9.32-5.23-7.91-7.28-13.91c-2.04-6-2.17-16.6-2.17-16.6,0,0,.26,4.47-.77,4.34s-2.81-6.38-3.83-19.4,3.83-27.06,3.83-27.06"/>
    </g>
    <g id="BOLSA">
      <path class="cls-21" d="M636.74,637.79s-16.35,4.58-15.56-21.03c.79-25.61,6.85-45.82,9.51-50.17s1.96-16.17,7.47-22.43,28.35-37.42,32.42-38.07,13.59,0,13.59,0c0,0-4.69,1.38-13.59,13.55-8.9,12.17-20.12,29.76-20.12,29.76,0,0-5.72,9.55-6.78,16.65-1.06,7.1.34,9.98-1.03,22.73s-5.91,49.01-5.91,49.01Z"/>
      <path class="cls-21" d="M648.68,474.2l25.9,39.82s2.38-11.23,7.15-12.6,7.83,0,7.83,0l-33.57-46.06-7.88,5.02.58,13.83Z"/>
      <path class="cls-13" d="M672.89,578.52s-.14,31.2,5.74,42.94,11.49,17.36,15.32,14.04c3.83-3.32,31.66-48.51,32.94-55.4,1.28-6.89-8.66-39.27-10.54-44.14-1.88-4.87-43.45,42.56-43.45,42.56Z"/>
      <path class="cls-8" d="M649.42,548.79s12.31-5.67,17.67,9.74c5.36,15.41,5.11,27.92,14.3,28.18s20.43-.77,27.57-14.55,10.98-20.43,9.7-28.09c-1.28-7.66-9.96-28.34-16.85-34.72s-15.61-12.52-22.05-6.72c-4.19,3.77-30.34,46.17-30.34,46.17Z"/>
      <path class="cls-7" d="M694.45,635.25s-5.75,12.85-18.7,14.21-37.47.09-39.25-5.53c-1.79-5.62,3.06-27.83,3.57-36.77.51-8.94,3.89-31.98,2.33-37.31-1.56-5.33,2.59-20.31,7.53-21.33s10.42-2.91,15.34,4.5c4.92,7.41,6.47,17.78,8.12,25.23,1.65,7.45-.14,25.58,2.93,36.05,3.06,10.47,11.15,21.55,13.74,21.37s4.38-.43,4.38-.43Z"/>
      <path class="cls-11" d="M663.31,561.72c-1.02-2.04-6.47-4.35-9.7-3.2-3.23,1.15-5.38,2.86-5.5,5.58,0,0-2.27,12.6,0,15.32,2.27,2.72,14.35,1.36,15.2,0,.85-1.36,1.02-15.66,0-17.7ZM662.02,577.8c-.71,1.14-10.8,2.27-12.69,0-1.89-2.27,0-12.79,0-12.79.1-2.27,1.89-3.69,4.59-4.66,2.7-.96,7.25.96,8.1,2.67.85,1.71.71,13.64,0,14.78Z"/>
      <path class="cls-8" d="M414.11,319.28s12.49-5.77,25.84,6.83c13.35,12.6,13.27,11.23,30.5,37.79,17.23,26.55,35.96,51.7,57.4,71.98s36.77,37.3,52.09,47.17c15.32,9.87,37.89,27.21,48.39,39.82s12.88,20.44,17.65,23.5,14.98,10.55,9.19,19.74-26.89.84-37.79-7.58-24.27-34.63-42.94-46.89c-18.68-12.26-58.17-40.09-69.74-51.02s-44.94-64.37-57.19-74.76-40.1-44.7-50.35-47.8,7.71-16.42,16.95-18.78Z"/>
      <polygon class="cls-11" points="705.58 567.98 706.22 579.98 712.48 586.73 711.71 571.96 705.58 567.98"/>
    </g>
  </g>
  <circle class="cls-12" cx="488.93" cy="413.93" r="12.83"/>
  <circle class="cls-19" cx="511.98" cy="442.85" r="12.83"/>
  <circle class="cls-24" cx="540.21" cy="468.52" r="12.83"/>
  <circle class="cls-11" cx="442.58" cy="354.47" r="12.83"/>
  <circle class="cls-22" cx="442.58" cy="354.47" r="10.06"/>
  <circle class="cls-22" cx="488.93" cy="413.91" r="10.06"/>
  <circle class="cls-22" cx="511.98" cy="442.85" r="10.06"/>
  <circle class="cls-22" cx="540.21" cy="468.52" r="10.06"/>
</svg>