<?xml version="1.0" encoding="UTF-8"?>
<svg id="Camada_1" data-name="Camada 1" xmlns="http://www.w3.org/2000/svg" viewBox="0 0 567.4 834">
  <defs>
    <style>
      .cls-1, .cls-2 {
        stroke: #1e3d1f;
      }

      .cls-1, .cls-2, .cls-3, .cls-4, .cls-5, .cls-6, .cls-7 {
        fill: none;
        stroke-miterlimit: 10;
      }

      .cls-1, .cls-4, .cls-5 {
        stroke-linecap: round;
      }

      .cls-8 {
        fill: #2b1b11;
      }

      .cls-9 {
        fill: #3c2a14;
      }

      .cls-10 {
        fill: #28562a;
      }

      .cls-3, .cls-4, .cls-5, .cls-6 {
        stroke: #3c2a14;
      }

      .cls-11 {
        fill: #a0a09f;
      }

      .cls-12 {
        fill: #0b0c0c;
      }

      .cls-13 {
        fill: #152317;
      }

      .cls-14 {
        fill: #e0ab00;
      }

      .cls-15 {
        fill: #bfbebe;
      }

      .cls-16 {
        fill: #422819;
      }

      .cls-4, .cls-6 {
        stroke-width: 2px;
      }

      .cls-17 {
        fill: #51351e;
      }

      .cls-18 {
        fill: #cf396f;
      }

      .cls-19 {
        fill: #060707;
      }

      .cls-20 {
        fill: #704e11;
      }

      .cls-21 {
        fill: #5a3f12;
      }

      .cls-22 {
        fill: #321e13;
      }

      .cls-7 {
        stroke: #848383;
      }
    </style>
  </defs>
  <g id="NINA">
    <path class="cls-13" d="M396.24,366.26s.38-9.74,4.63-13.55c4.56-4.1,11.31-8.18,16.31-11.21s7.53-4.63,7.53-4.63c0,0-3.41,9.17-9.65,15.26-6.23,6.08-12.47,11.09-18.82,14.14Z"/>
    <g id="corpo">
      <path class="cls-21" d="M319.62,737.42s16.99,18.38,16.65,36.42-4.09,34.72-2.38,36.09,41.53-1.7,61.62,4.09,46.64,7.83,50.72,6.47,5.79-5.11,5.79-6.81,3.06,3.74,9.19,3.06,13.28-1.7,14.3-4.09,2.04-6.13,0-6.81,7.49,1.7,11.57.34,11.86-7.49,9.14-10.21c-2.72-2.72-14.98-16.34-40.85-23.15-15.18-3.99-22.07-17.7-22.76-25.19s11.23-32.68,23.15-43.23,21.79-38.81,22.13-42.21-.37-25.13-.37-25.13c0,0-19.72,59.85-66.36,79.6-46.64,19.74-91.54,20.77-91.54,20.77Z"/>
      <path class="cls-21" d="M279.32,818.58s7.78,4.7,13.41,2.31c5.63-2.38,8.8-7.49,7.04-10.89s-9.16-12.6-18.31-17.36-14.44-9.19-15.5-12.94-3.42-12.17.89-16.89-9.29,8.65-8.57,20.6,1.62,14.08,6.94,19.46,14.09,15.71,14.09,15.71Z"/>
      <path class="cls-20" d="M566.6,330.77c-2.04-4.43-15.66-1.02-17.7,2.38-2.04,3.4-5.45,6.81-5.45,6.81,0,0,7.15-10.21,6.81-16.68-.34-6.47-1.02-13.28-5.79-13.28s-13.28,8.17-14.3,13.62c-1.02,5.45-8.85,12.94-8.85,12.94,0,0,5.79-15.32,3.4-22.47-2.38-7.15-7.49-11.57-10.55-9.19-3.06,2.38-8.76,5.11-10,13.96-1.24,8.85,0,21.79,0,21.79,0,0-9.35-16.34-16.53-12.6s-6.49,20.09-3.43,24.85c3.06,4.77,9.19,12.6,9.19,12.6,0,0-21.79,36.77-27.57,45.28s-21.45-22.64-21.45-22.64c0,0,1.7,50.89,0,63.15-1.7,12.25-2.84,14.35-2.84,14.35-4.3-8.33-8.01-15.57-10.61-21.33-14.3-31.66,4.6-86.3,4.6-86.3,0,0-35.74,68.43-45.96,84.26s-61.28,63.32-68.94,61.28c-7.66-2.04-91.91-55.66-91.91-55.66,0,0,4.09,27.06,3.06,48-.95,19.57-14.84,31.11-13.73,34.2-5.94-6.57-23.37-14.03-23.37-14.03,0,0,5.62-10.64,6.64-38.55,1.02-27.91-9.53-52.09-22.47-70.13-12.94-18.04-60.26-26.21-60.26-26.21,0,0-19.32,31.15-25.96,46.47s-14.22,57.76-6.3,83.8c7.91,26.04,41.9,56.43,57.47,68.17,6.79,5.12,13.06,9.05,17.82,10.71-.22.28-4.15,2.85-30.44,11.28-27.06,8.68-38.81-4.09-40.85,2.04-2.04,6.13-12.26,60.26,0,89.87,12.26,29.62,45.45,59.74,54.64,74.04,9.19,14.3,9.19,41.87,10.21,46.47,1.02,4.6,64.85,18.89,79.66,19.91,14.81,1.02,12.26-7.66,14.3-7.15s28.09,4.09,31.66-2.55c3.57-6.64-18.38-23.49-20.94-29.62-2.55-6.13-1.1-24.9,11.74-37.28,4.58-4.41,9.6-9.96,14.34-16.34,9.22-.6,76.64-5.18,105.15-12.96,30.64-8.36,89.87-61.09,96-118.28,3.71-34.67-12.46-76.47-28.96-111.07l.02.04s26.05,6.01,44.1-5.9c18.04-11.91,30.64-30.64,35.74-45.62s5.79-44.26,5.45-56.85c-.34-12.6.07-13.96.07-13.96,0,0,7.08-6.81,9.12-14.98s2.04-11.57,2.04-11.57c0,0,13.96-14.64,11.91-19.06Z"/>
      <path class="cls-20" d="M113.43,294.6c1.42,9.19,9.59,30.64,13.68,32.68,4.09,2.04,135.83,61.28,183.83,61.28s80.68-18.38,84.77-22.47c4.09-4.09-2.04-11.23,16.34-21.45,18.38-10.21,42.89-26.55,51.06-45.96,8.17-19.4,13.28-68.07,0-88.67-13.28-20.61-31.66-41.03-37.79-70.65-4.59-22.21-14.36-56.47-33.59-76.96,0,0,5.42-6.1,7.8-18.33s-7.15-21.47-14.64-26.58c-7.49-5.11-18.38-5.79-27.23-3.4-8.85,2.38-16.85,24.38-16.85,24.38-14.62-4.52-21.19-6.33-21.19-6.33,0,0-31.68-2.68-65.37,2.77-.27-2.54-1.12-8.43-4.67-15.09-4.09-7.66-9.87-12.77-11.4-11.57-1.53,1.19,1.7,8.51,1.7,8.51,0,0-2.04-3.57-5.62-7.15S222.51.75,217.33.07c-5.19-.68-5.54,4.09-3.67,6.98,1.87,2.89,4.77,12.94,3.23,10.72s-9.53-5.45-16.51-6.98-12.26,3.91-8,5.45,9.19,11.57,9.19,11.57c0,0-3.4-2.38-6.3-2.38s-7.49,4.94-6.3,13.11c1.19,8.17,14.33,13.57,14.33,13.57,0,0,0,0,0,0-2.74,1.71-5.35,3.56-7.78,5.56-3.89,3.19-7.59,6.38-11.13,9.56h0s-13.98,6.44-23.85-1.39c-9.87-7.83-20.43-30.64-37.45-18.04-17.02,12.6-18.72,32-13.62,38.81,5.11,6.81,9.87,13.96,15.66,13.96s11.98-3.37,17.7,1.7c2.31,2.05,3.97,4.16,5.13,5.95-9.96,14.92-15.87,29.24-17.81,42.39-4.09,27.57-19.4,111.32-16.34,122.55"/>
      <path class="cls-20" d="M100.75,581.94s0-.39,0-1.08c-.04-4.76-.23-23.96-.35-30.38-.14-7.36-1.6-15.51-3.41-19.47s12.8,16.9,20.86,24.51,18.67,16.74,18.67,16.74c0,0-11.83,5.6-19.84,7.12s-15.92,2.56-15.92,2.56Z"/>
    </g>
    <g id="mãos">
      <path class="cls-21" d="M197.12,587.44c-2.08,1.48-2.29,4.49-.42,6.22,4.44,4.12,12.93,10.31,24.11,10.65,16.85.51,22.98-.26,24.51-3.83s-6.89-14.3-8.94-14.81,14.04,13.79,28.85,5.87c14.81-7.91-5.36-23.23-7.91-24.26s8.21,9.05,13.3,2.61-.79-15.89-19.94-20.23c-19.15-4.34-18.28-4.12-19.49-4.91-5.05-3.3-28.05,1.48-24.6,22.21,1.4,8.39-4.7,17.09-9.48,20.48Z"/>
      <path class="cls-21" d="M522.56,382.62c-8.1.51-16.02-2.59-21.66-8.44-2.54-2.64-5.14-5.49-6.98-7.93-5.04-6.66-11.03-13.88-11.18-19.54-.15-5.66.37-16.03,4.37-17.22s8.55-1.01,13.06,5.45l4.51,6.46s-1.37-16.81,0-21.79c1.37-4.98,3.61-13.88,11.78-14.6s9.49,11.26,9.34,14.09-1.25,15.68-1.25,15.68c0,0,3.06-4.89,7.83-14.37s11.37-9.82,12.6-9.65,8.61,7.61,5.33,17.05c-3.28,9.45-6.35,12.9-6.35,12.9,0,0,5.92-7.69,7.18-8.38s9.44-4.42,13.73-2.53,2.11,5.26.81,7.37-9.25,12.14-10.49,13.42.41,9.95-4.43,17.55-6.73,9-6.73,9c0,0-9.09,4.19-17.52,5.13-1.33.15-2.66.26-3.96.34Z"/>
    </g>
    <g id="sobrancelha">
      <path class="cls-9" d="M202.33,103.67c.11-1.61.86-3.11,1.97-4.29,3.37-3.58,13.12-13.58,19.24-16.08,7.49-3.06,22.13-2.04,24.17,2.38s-.34,8.51-4.43,7.83-13.89-1.7-17.5,1.36-19.61,15.66-19.95,14.64c-.28-.84-3.78-1.91-3.51-5.85Z"/>
      <path class="cls-9" d="M354.6,67.64s-.68-6.81,9.53-7.15,23.49,7.83,29.96,13.96-4.77-1.36-13.28-3.06-18.04,6.44-21.79,5.43-4.43-9.18-4.43-9.18Z"/>
    </g>
    <g id="boca">
      <path class="cls-12" d="M295.92,253s22.22,16.14,29.83,19.91c7.62,3.77,26.5,10.02,31.45,9.71s44.43,2.12,51.4,2.93,10.89,0,10.89,0c0,0-17.24,26.95-34.06,34.34-16.82,7.39-17.88,7.5-25.34,6.81s-26.07-9.44-33.96-17.76c-7.89-8.32-21.37-26.9-24.08-33.41-2.71-6.52-6.13-22.53-6.13-22.53Z"/>
      <path class="cls-18" d="M323.66,306.28s35.57-2.21,43.4,0,21.82,9.31,23.15,9.87-14.08,10.83-28.17,10.83c-16.6,0-38.39-20.7-38.39-20.7Z"/>
      <path class="cls-11" d="M362.05,281.14s1.06,15.94,4.46,18.33c2.03,1.42,8.03,1.51,13.64,1.14,3.81-.25,7.44-.72,9.51-1.14,5.11-1.02,12.21-15.88,12.21-15.88,0,0-7.57-2.99-10.6-7.86s-7.39-10.98-7.39-10.98c0,0-3.62,8.34-8.6,11.28-4.98,2.94-13.23,5.12-13.23,5.12Z"/>
      <path class="cls-7" d="M383.88,264.75s-.81,13.19-1.19,19.83c-.38,6.64-1.25,15.94-1.25,15.94"/>
      <path class="cls-6" d="M383.88,264.75s-8.45,21.1-33.84,15.83-55.35-29.78-55.35-29.78c0,0,2.21,26.21,24.94,51.4,22.72,25.19,38.72,26.21,48.26,25.19s26.55-10.7,37.45-22.37,16.21-20.99,16.21-20.99c0,0-16.12,4.12-24.13-3.15s-13.53-16.13-13.53-16.13Z"/>
      <path class="cls-6" d="M285.83,253.85s9.53-3.74,12.26-7.83"/>
    </g>
    <g id="focinho">
      <path class="cls-21" d="M383.88,264.75s-6.47,16.68-26.21,16.68-34.13-16.77-38.04-27.57c-4.02-11.11-1.5-42.41,5.36-68.09,7.98-29.86,18.38-45.28,46.98-45.62s62.43,2.16,74.21,13.62c12.26,11.91,5.45,53.79,1.7,68.43-3.74,14.64-5.11,65.02-36.34,63.32-19.61-1.07-27.66-20.77-27.66-20.77Z"/>
      <path class="cls-9" d="M365.78,201.55s-19.65-.8-22.71-12.72,3.57-14.13,6.47-13.45,10.36,4.17,13.28,10.38c2.72,5.8,2.97,13.56,2.97,15.78Z"/>
      <path class="cls-9" d="M417.28,199.38s0-14.64,4.25-19.06c4.26-4.43,9.03-10.21,12.43-6.81,3.4,3.4,2.89,10.89,0,15.66s-16.68,10.21-16.68,10.21Z"/>
      <path class="cls-3" d="M365.2,201.09s21.45,16.85,22.47,18.89,31.83-22.81,31.83-22.81"/>
      <line class="cls-5" x1="383.88" y1="264.75" x2="387.66" y2="219.98"/>
    </g>
    <g id="olhos">
      <path class="cls-15" d="M371.75,109.47s6.3-5.91,15.91-4.89,14.21,7.15,17.28,16.6c3.06,9.45,2.26,23.11,2.26,23.11,0,0-8.87-2.01-17.19-10.95-8.32-8.94-18.26-23.86-18.26-23.86Z"/>
      <ellipse class="cls-15" cx="242.82" cy="144.46" rx="35" ry="32.43" transform="translate(91.12 382.82) rotate(-88.28)"/>
      <ellipse class="cls-19" cx="239.61" cy="144.28" rx="28.77" ry="34.16"/>
      <circle class="cls-15" cx="233.78" cy="127" r="5.83"/>
      <path class="cls-19" d="M371.75,109.47s6-5.23,11.37-5.01,9.62,3.1,12.89,11.44,1.43,23.32,1.43,23.32c0,0-10.69-9.38-13.53-13.04-2.84-3.65-10.59-12.59-12.17-16.71Z"/>
      <circle class="cls-15" cx="383.12" cy="113.17" r="5.83"/>
    </g>
    <g id="bandana">
      <path class="cls-10" d="M423.98,337.58s-6.76,18.73-28.27,28.51c-21.96,9.98-37.6,22.47-78.01,20.45-36.67-1.83-56.79-5.96-90.23-19.15s-112.85-46.61-114.89-47.63-4.62,10.27-1.05,19.46c3.57,9.19,7.32,20.68,10.81,21.83s53.53,7.39,69.36,21.63c15.83,14.24,39.06,62.9,37.53,65.97s88.35,56.48,91.91,55.66,46.38-26.32,65.64-54.45c19.26-28.13,46.96-87.87,49.26-91.09s-6.51-17.21-12.07-21.19Z"/>
      <path class="cls-10" d="M97.75,302.28s-14.64,4.43-11.06,23.83c3.57,19.4,22.3,42.21,24.68,44.43s12.6-7.32,12.6-7.32c0,0-14.64-21.79-13.75-32.85.99-12.3,6.26-16.85,6.26-16.85,0,0-8.68-12.77-18.72-11.23Z"/>
      <path class="cls-10" d="M88.81,309.72s-6.74-4.59-11.85-13.14c-2.99-5.01-5.41-11.37-5.6-18.97-.51-20.6,3.57-17.02,3.57-17.02,0,0,27.4,5.79,33.19,12.77,5.79,6.98,7.03,14.41,7.03,14.41,0,0-1.98,3.84-1.73,6.84.31,3.72-5.57,10.41-5.57,10.41l-19.05,4.7Z"/>
      <path class="cls-10" d="M76.97,296.57s-19.9-7.91-29.26-5.02-16.68,17.87-22.13,22.47-7.15,7.32-4.43,7.66,9.87-.68,13.62-2.89,11.06-13.77,20.43-13.78,29.59,1.32,29.59,1.32l-7.82-9.76Z"/>
      <path class="cls-10" d="M84.21,306.14s-25.3-4.13-33.4-.69c-8.1,3.44-20.87,20.29-23.08,34.59-1,6.49-1.27,10.95-1.27,13.88,0,1.64,2.1,2.3,3.05.96,4.25-6.04,12.33-15.49,17.62-15.86,7.32-.51,14.13,1.4,25.7-2.71s14.34-5.94,14.34-5.94l1.06-20.85-4.03-3.38Z"/>
      <path class="cls-1" d="M109.17,305.93s-5.84-.23-8.27,9.47-.38,17.87.45,20.77"/>
      <path class="cls-1" d="M115.99,369.28s-5.39-5.55-8.39-9.77-6.7-12.06-6.7-12.06"/>
      <path class="cls-1" d="M100.9,301.78s-5.17-11.03-10.28-16.76"/>
      <path class="cls-1" d="M84.21,306.14s-19.1-2.58-24.87-2.03-9.2.67-12.89,4.09-5.67,5.42-7.43,7.8"/>
      <path class="cls-1" d="M430.97,345.37s-2.43,9.03-9.96,18.35-15.7,17.62-20.43,21.19"/>
      <path class="cls-1" d="M110.77,336.86s10.2,7.73,28.92,14.7,30.34,12.81,48.36,17.72"/>
      <path class="cls-1" d="M88.81,309.72s-.63,1.4-6.74-6.77-6.09-6.49-8.92-14.78-1.82-15.31-1.82-15.31"/>
      <path class="cls-2" d="M122.35,361.04s-7.75-12.52-9.75-19.22c-2.01-6.7-3.73-11.23-.01-22.07,0,0,1.07-4.65,3.34-5.87s-11.54-14.84-18.18-11.6-10.48,6.32-11.06,14.13-.85,10.36,2.53,18.58c4.13,10.06,11.52,22.32,15.83,27.81s4.97,7.43,6.32,7.73,4.99-1.01,7.82-3.3,4.78-4.02,4.78-4.02l-1.61-2.17Z"/>
      <path class="cls-13" d="M107.86,304.2s2.4-1.91,3.6-4.21,1.97-5.39,1.97-5.39c0,0,1.54,8,4.18,14.68s7.34,15.75,7.34,15.75l-11.89-5.06s1.22-4.07,2.18-4.88c.9-.77,1.85-1.83.4-3.45s-7.78-7.44-7.78-7.44Z"/>
    </g>
    <g id="mochila">
      <path class="cls-17" d="M100.9,379.88s13.41-.75,39.38,7.11,36.68,15.51,44.47,30.25,15.09,28.59,15.49,45.96-.54,40.59-3.05,46.71l-2.5,6.13s22.28,13.29,23.88,14.79,5.16-7.04,10.27-16.74c6.3-11.98,6.32-51.82-.73-70.38s-20.41-48.14-36.39-61.04c-14.62-11.81-32.13-14.42-44.25-16.83-12.12-2.41-25.11-4.8-25.11-4.8l1.61,2.17s-3.02,3.99-6.29,5.55-4.28,2.29-6.3,1.77-4.41-4.48-4.41-4.48l-6.06,13.83Z"/>
      <path class="cls-17" d="M442.06,466.39s-15.33-22.26-16.56-39.87c-1.53-21.72,1.59-42.71,5.48-54.13s5.08-13.63,5.08-13.63c0,0,5.09,4.61,8.91,11.5,3.83,6.89-.06,18.63-.06,18.63,0,0,.18,19.18.75,38.31.85,28.43-3.59,39.19-3.59,39.19Z"/>
      <path class="cls-17" d="M91.36,602.8s5.12-9.44,5.8-12.5,1.93-8.2,1.93-8.2c0,0,12.6-1.02,22.81-4.09s14.61-5.76,14.61-5.76c0,0,12.47,9.59,14.14,10.61s10.89,5.41,10.89,5.41c0,0,.97,1.07-3.41,3.36-4.38,2.3-26.66,11.67-34.03,12.68s-14.17,1.94-23.35-.25c-5.94-1.42-9.4-1.28-9.4-1.28Z"/>
      <path class="cls-17" d="M86.34,631.09c-1.49,3.59-38.94,7.96-48.48-10.27-8.59-16.41-18.04-76.26-16-104.17s18.04-126.98,26.55-138.21,21.79-16.34,27.91-14.64,15.8,3.4,16.92,22.47c1.12,19.06-5.15,48.83-7.12,70.88s-4.01,42.76,1.67,55.49c5.68,12.73,13.04,20.35,12.7,36.35s1.49,36.73-1.4,42.3c-2.89,5.57-6.98,7.89-8.23,13.1s-4.52,26.7-4.52,26.7Z"/>
      <path class="cls-8" d="M31.04,450.78s-10.08,1.19-11.17-10.39,11.47-64.73,19.15-75.26c7.68-10.53,21.98-19.62,34.91-20.86s21.64,3.72,21.64,3.72c0,0,9.76,17.08,11.38,18.06s-6.06,13.83-6.06,13.83l-7.77,4s-.55-16.45-20.34-17.23c-19.79-.79-26.38,13.66-29.32,24s-12.43,60.13-12.43,60.13Z"/>
      <path class="cls-8" d="M86.34,454.87s3.18-20.99,11.35-35.84c8.17-14.85,21.42-37.11,21.42-37.11,0,0-13.77-3.1-18.21-2.03s-7.77,4-7.77,4l-6.79,70.98Z"/>
      <path class="cls-8" d="M47.87,590.3s17.11-1.55,22.72-17.63c5.62-16.07,6.89-64.67,6.38-67.95s-6.13-9.4-6.13-9.4c0,0-2.71,46.47-8.37,64.34-5.67,17.87-12.31,28.6-14.6,30.64Z"/>
      <path class="cls-22" d="M48.2,590.18s-24.77,3.57-35.49-3.32-13.53-9.7-12.51-18.89,8.94-48,8.94-49.02,2.04-20.94,5.36-23.74c3.32-2.81,17.36-3.83,29.62-2.55,12.26,1.28,25.57.82,27.06,2.55s-2.3,40.6-3.32,47.49-6.97,23.78-10.12,30.6-6.98,16.12-9.54,16.88Z"/>
      <path class="cls-16" d="M21.61,492.72s-9.1-1.74-9.9,11.33-.03,12.7,7.63,15.82c7.66,3.12,32.68,1.84,37.53,1.33,4.85-.51,2.64-8.46,4.76-13.93s7.1-13.07,9.72-12.21-26.28-4.78-49.74-2.34Z"/>
      <polygon class="cls-14" points="33.3 514.4 26.32 523.59 30.75 533.63 37.73 524.01 33.3 514.4"/>
    </g>
    <g id="contornos">
      <path class="cls-4" d="M249.66,827.53s-2.55-9.96-9.02-13.02c-6.47-3.06-14.3-5.79-14.3-5.79"/>
      <path class="cls-4" d="M202.86,794.43s17.02-7.49,35.15-9.53c18.13-2.04,21.38,1.7,21.38,1.7,0,0-2.75-9.11,7.47-23.79,10.21-14.68,23.24-22.51,33.41-47.36,10.17-24.85,4.38-49.7-2.77-62.98-7.15-13.28-26.72-34.04-39.23-42.21"/>
      <path class="cls-4" d="M397.24,777.41s20.77-7.15,34.72-6.47,16.57-.16,23.4,1.89c0,0-12.29-3.73-16.58-10.99s-8.98-12.76-4.13-23.77c4.86-11.02,9.82-21.1,14.66-26.63,4.84-5.53,13.31-12.93,18.44-23.86s7.21-16.63,10.22-30.17c3.01-13.54,3.11-20.36,3.11-20.36-5.6,20.06-18.15,31.07-24.67,42s-22.86,23.98-42.08,38.72-38.81,14.47-60.93,17.75c-22.12,3.27-39.17,4.1-39.17,4.1"/>
      <path class="cls-4" d="M420.39,794.43c7.83,0,14.64,2.04,23.49,6.81,8.85,4.77,8.14,12.44,8.14,12.44,0,0-1.46,6.41-5.79,6.81-4.32.4-21.7-.28-32.22-2.35s-18.06-4.83-26.7-5.87c-8.64-1.04-42.64-2.28-50.31-1.97"/>
      <path class="cls-4" d="M449.32,789.36c2.38,1.06,10.21,1.33,18.38,6.77,8.17,5.45,11.91,17.05,4.77,18.57-7.14,1.52-11.92,3.56-15.24,1.77s-5.22-2.8-5.22-2.8"/>
      <path class="cls-4" d="M335.96,336.56s26.55,10.21,38.13,7.15c11.57-3.06,37.45-25.87,37.45-25.87"/>
      <path class="cls-4" d="M165.75,88.38s-10.21-4.43-16.34-10.89c-6.13-6.47-18.04-14.64-22.13-10.55s-7.83,9.19-1.7,14.64,10.21,4.77,11.91,6.81"/>
      <path class="cls-4" d="M361.49,41.07s2.38-11.57,12.26-11.91,13.96,5.45,15.32,8.85"/>
      <path class="cls-4" d="M466.34,411.53s-5.11,6.04-4.09,14.55c1.02,8.51,2.04,20.43,6.13,29.96"/>
      <path class="cls-4" d="M144.9,496.64s28.1,4.08,42.38,13.45c14.28,9.37,20.82,11.96,26.05,16.36,5.24,4.39,11.06,10.37,13.95,12.75s3.91,4.43,3.91,4.43"/>
      <path class="cls-4" d="M475.5,805.85s7.26,2.65,11.57.34,7.89-4.38,8.79-6.51,4.08-.5-1.17-5.25-15.54-12.62-22.6-15.58c-7.07-2.96-16.73-6.02-16.73-6.02"/>
      <path class="cls-4" d="M493.92,366.26s4.26,7.41,10.28,10.84c6.02,3.44,13.55,5.57,13.55,5.57"/>
      <path class="cls-4" d="M522.09,371.64s1.79-12.51-1.53-16.34c-3.32-3.83-10.21-4.85-10.21-4.85"/>
      <path class="cls-4" d="M543.03,356.07s-10.98-1.53-13.79,2.81-4.18,9.7-4.18,9.7"/>
      <path class="cls-4" d="M426.09,146.64s-21.94,5.66-44.41-22.25c-22.47-27.91-41.53-58.55-41.53-58.55"/>
      <path class="cls-4" d="M162.33,588.57s2.04,4.89,13.41,5.04,19.68-2.52,19.68-2.52c0,0,3.39,8.09,15.28,11.26,11.89,3.16,26,2.62,30.82.98"/>
      <path class="cls-4" d="M474.82,537.26c-5.87-17.61-12.19-29.31-16.15-37.78-3.96-8.46-16.62-33.09-16.62-33.09"/>
    </g>
  </g>
</svg>