<?xml version="1.0" encoding="UTF-8"?>
<svg id="_ÍCONES" data-name="ÍCONES" xmlns="http://www.w3.org/2000/svg" viewBox="320 310 440 360">
  <defs>
    <style>
      .cls-1 {
        fill: #8c4915;
      }

      .cls-2 {
        fill: #763c11;
      }

      .cls-3 {
        fill: #c8975a;
      }

      .cls-4 {
        fill: #b0601a;
      }

      .cls-5 {
        fill: #a05417;
      }

      .cls-6 {
        fill: #844313;
      }

      .cls-7 {
        fill: #4a609f;
      }

      .cls-8 {
        fill: #d6aa6f;
      }

      .cls-9 {
        fill: #ce7a2b;
      }

      .cls-10 {
        fill: #8e2c14;
      }

      .cls-11 {
        fill: #bb671e;
      }

      .cls-12 {
        fill: #feedcd;
      }

      .cls-13 {
        fill: #bc3c1a;
      }

      .cls-14 {
        fill: #2f4272;
      }

      .cls-15 {
        fill: #3d528e;
      }

      .cls-16 {
        fill: #a75a18;
      }

      .cls-17 {
        fill: #f6daac;
      }

      .cls-18 {
        fill: #a17245;
      }
    </style>
  </defs>
  <g id="livro">
    <path class="cls-11" d="M399.52,348.33l4.84,9.16c-10.28,6.19-19.55,12.56-28.07,20.92l-.46,1.99c-.07.31.8.34,1.22.4l-6.64,6.1c15.22.24,28.61.51,42.97-.3l8.47-1.55c-2.53-1.79-5.71-2.48-8.81-3.06l-30.39-5.64c7.65-6.07,20.37-17.49,28.78-17.44l36.85.22,28.13.53,104.26,3.63,94.36,5.15c13.25.72,15.94,7.17,18.41,7.95.58.18,1.59-.46,2.89-1.12l-9.47-7.35,2.9-8.43c1.81.82,3.5,2.03,4.96,3.27l13.45,11.35c4.26,3.6,7.36,8.51,11.86,11.8l-1.49.91c-1.16-.43-3.13-1.24-3.69-.66l-2.85,2.99-10.04-8.95c-.44-.39-1.91-.89-2.48-.77s-1.66,1.07-1.32,1.55l1.63,2.28,1.1,2.75c.24.6,2.44.49,2.96.9,10.8,8.38,10.8,11.35,11.34,22.7l.66,13.76.05,1.97c.01.54,1.33.6,1.79-.02l-.07,2.31-1.12,1.53.18,9.71-14.03-2.83c-2.25-.45-6.61-.42-7.72,2.01s2.23,6,4.4,6.03l15.23.19c7.53,3.72-2.84,11.06,3.62,14.4v-17.56s1.46-.01,1.46-.01l.92,49.77-3.36.24-6.58.74-5,.94-2.01.36c-.28-3.44,2.62-6.11,5.64-7.84-2.11-2.44-3.26-4.94-2.01-7.93-1.19-2.82-6.73-3.04-9.03-1.39l.11,4.92-4.65-4.94-1.73-1.48c-.48-.41,1.49-1.39,2.13-1.58l10.3-3.04,12.89-4.98-14.11-2.9-7.96-3.45-2.43-.85c-.65-.23-.69-2.07-.71-2.84l-.08-2.84c-.02-.65-1.32-.96-2.14-1.09l-.21-7.84c.47.16,1.93-.61,2.06-1.22l1.39-6.36-3.67-1.33-.21-8.55c-.04-1.75-1.14-4.64-2.1-5.86-.19-.23-.88-.65-1-.72-1.36-4.33-4.76-5.8-9.41-6.07l-8.09-.46-.09-10.41c-.04-4.33-3.74-5.98-7.28-6.67-21.21-4.16-42.32-6.31-63.47-4.29-.63-.76-3.13-.79-4.51-.61l-19.25,2.57c-2.8.37-6.8-3.96-9.24-4.5-8.04-1.77-16.4-3.8-24.73-3.94l-23-.38c-10.03-.16-18.77,3.76-22.03-.01l2.86-3.12c.54-.59-1.83-1.91-2.58-2.34l-8.48-4.84c-2.2-1.26-4.57-1.79-6.55-3.84-.39-.4-1.47-1.13-1.93-1.38-.62-.33-1.32,1.88-1.38,2.59-.39,4.19,1.23,6.02,4.09,8.18s5.26,3.46,8.89,4.61l-14.15-.97-21.95.22-12.94,1.13-7.18.58c-1.55.13-3.76,1.73-4.76,2.7l-2.56,2.49c-1.02.99-1.91,2.96-2.74,5.07l-3.5,1.53c-2.84,6.49-10.01,4.59-10.44,6.08l-.6,2.73c-2.81.07-5.51,3.05-6.88,5.36-2.16,1.2-3.91,5.01-3.93,7.8-4.53,1.17-6.94,7.05-7.06,11.92-2.91.74-5.68,2.34-7.97,4.47l-3.68,1.79c1.01,1.49,3.42,3.43,4.79,3.2l6.64-.76-.24,9.39-8.24-1.05c-.41-1.32-1.82-3.48-2.48-2.9-2.26,2.11-4.67,2.5-7.47,1.94l-7.68-1.55,1.1-54.2-10.24-5.33-1.32-.3c1.02-2.12,2.19-4.03,3.75-5.67,10.47-11.01,28.05-26.09,41.36-31.49ZM374.48,436.39c-.5.1.67,1.62,1.15,1.44l1.35-.5c.33-.12-.13-1.43-.47-1.36l-2.03.42Z"/>
    <path class="cls-2" d="M404.92,637.44l99.4,1.82h65.18s98.73-2.49,98.73-2.49l20.31-1.79.53,9.27c.07.89.69,3.89,1.54,3.87l3.12.33c-2.75,2.9-6.7,4.87-11.04,5.06l-39.95,1.81-73.89,2.05-120.44.22-51.04-1.38c-5.27-.14-9.47-2.18-13.45-5.48-10.29-8.53-19-18.22-27.21-28.8-2.39-3.08-3.9-6.75-4.52-10.24,5.35.2,7.94-4.69,12.53-5.23,3.59-.43,7.48,7.79,9.68,14.29.83,2.45,5.04,5.93,7.32,7.28l6.38,3.77,13.16,5.79c.93.41,3.07.28,3.66-.14Z"/>
    <path class="cls-9" d="M689.76,359.49l-2.9,8.43,9.47,7.35c-1.3.66-2.31,1.31-2.89,1.12-2.46-.78-5.16-7.23-18.41-7.95l-94.36-5.15-104.26-3.63-28.13-.53-36.85-.22c-8.41-.05-21.14,11.37-28.78,17.44l-5.6,4.45c-.42-.06-1.29-.08-1.22-.4l.46-1.99c8.52-8.36,17.8-14.74,28.07-20.92l-4.84-9.16c1.98-.81,5.61-1.61,7.97-1.59l40.89.39,88.17,2.29,71.41,3.61,74.76,4.59c2.39.15,5.09.99,7.05,1.87Z"/>
    <path class="cls-6" d="M355.73,385.79c-.89,1.84-2.14,5.11-2.22,7.14l-.97,23.67-.14,90.67c1.84,4.76,2.74,9.34,4.05,14.08,1.42,5.14,2.76,9.97,3.05,15.41s1.37,10.45,2.91,15.72l.69,2.38c.18.61,1.34.88,2.01.89l.66,24.66.9,16.2c.15,2.75,1.2,5.71,2.38,7.75,3.32,5.74,7.86,10.48,12.65,15.53,5.55,5.85,11.06,10.71,18.05,15.14l5.16,2.42c-.59.42-2.73.55-3.66.14l-13.16-5.79-6.38-3.77c-2.28-1.35-6.49-4.82-7.32-7.28-2.19-6.49-6.09-14.71-9.68-14.29-4.59.54-7.18,5.43-12.53,5.23l-.37-2.1,1.47-.99-.04-11.35c0-.36-.15-1.47-.48-1.51l-1.28-.22-.02-2.73,1.03-4.84c.1-1.04-.48-4.05-1.21-4.32l-.47-16.98.05-146.6.8-24.9c.11-3.3,1.4-6.84,2.77-9.68l1.32.3Z"/>
    <path class="cls-6" d="M728.73,501.83l.48,33.88-.71,1.35v51.85s.61,2.03.61,2.03c-.01,6.98-.78,14.08-2.65,20.74-1.39,4.96-6.16,8.75-9.51,12.29l-23.23,24.49-3.12-.33c-.85.02-1.47-2.98-1.54-3.87l-.53-9.27,18.14-18.67,10.61-13.13,1.32-8.13,1.95-13.39c1.87-.1,5.49-2.09,5.48-4.56l-.15-33.12-.57-4.68c1.04-.02,2.12-1.79,2.07-2.95l-.75-18.63c-.02-.6-.38-2.2-1.08-1.88l.45-9.21c.1-2.04.83-4.53,2.74-4.77Z"/>
    <path class="cls-5" d="M725.2,393.82l1.47,11.17c-.81-.43-1.52,1.58-1.79,2.57-.22.79,1.14,2.37,1.93,2.53l.62,1.34c-.68-.16-1.36.68-1.58.88l.4,38.11-.67,13.29-1.27,40.28,1.68,2.59-.45,9.21-.24,23.47.57,4.68-4.69-.03.15-7.7c.01-.75-.34-2.56-.44-2.89l-.14-29.23-.2-13.25-.92-49.77h-1.46s-.43-7.03-.43-7.03l-.13-6.44.07-2.31-1.3-24.84c-.07-1.37-.14-3.64.58-4.18.57-.43,1.78-.93,2.75-1.27l5.49-1.2Z"/>
    <path class="cls-1" d="M728.55,493.19c-.82-.5-1.84,1.08-1.94,1.89s1.19,2.41,2.02,2.1l.1,4.66c-1.92.24-2.64,2.73-2.74,4.77l-1.68-2.59,1.27-40.28.67-13.29-.4-38.11c.22-.21.9-1.05,1.58-.88l1.12,81.75Z"/>
    <path class="cls-9" d="M720.04,385.91c2.52,1.84,4.76,4.8,5.17,7.91l-5.49,1.2c-.97.34-2.18.84-2.75,1.27-.71.54-.65,2.81-.58,4.18l1.3,24.84c-.46.62-1.78.56-1.79.02l-.05-1.97-.66-13.76c-.54-11.35-.54-14.32-11.34-22.7-.53-.41-2.73-.3-2.96-.9l-1.1-2.75-1.63-2.28c-.34-.47.75-1.43,1.32-1.55s2.04.38,2.48.77l10.04,8.95,2.85-2.99c.56-.58,2.53.23,3.69.66l1.49-.91Z"/>
    <path class="cls-1" d="M726.68,404.99l.14,5.11c-.78-.16-2.14-1.74-1.93-2.53.27-1,.98-3,1.79-2.57Z"/>
    <path class="cls-6" d="M728.55,493.19l.07,3.98c-.83.31-2.13-1.3-2.02-2.1s1.13-2.38,1.94-1.89Z"/>
    <path class="cls-6" d="M398.25,418.86l-.32,43.37-.34,11.34c-.2,6.56-2.14,13.14.03,20.01,1.66,5.27-.13,10.93-.12,16.32l.12,60.25.76,11.3c.29,4.38,4.91,8.72,8.03,10.93,0,.62.27,3.01,1.07,3.35,1.43.6,4.68,2.1,6.17,2.18l21.85,1.14,12.84.59,44.97.46,12.34,1.03c8.09.67,14.76,2.81,22.27,5.75l9.69,2.1c4.78,1.04,9.86.46,14.65-.19,7.07-.97,14.02-.15,20.75.72l.96.66c-.12.28.86,1.01,1.27.84l1.26-1.02,1.76-.36,27.26-.08,3.18.53c-3,2.75-.15,7.43-2.45,9.93-.78.85-3.9.72-4.97.29l-14.09-5.7-14.26,7.42c-2.29,1.19-5.19-1.38-5.52-3.38l-1.15-7.01c-14.69,5.54-30.25,6.59-44.96,1l-10.17-5.43-33.82-.3-53.6-.74-20.07-1.39-5.11-3.46-3.82-3.94c-4.04-4.04-4.96-10.3-4.95-16.19l.2-75.54.03-10.21v-3.06s.73-43.51.73-43.51l.24-9.39.22-8.7c.12-4.87,2.53-10.75,7.06-11.92Z"/>
    <path class="cls-1" d="M364.87,445.31l.07,13.05.08,29.47-.09,6.75.03,28.07.15,33.09c-.67,0-1.83-.28-2.01-.89l-.69-2.38c-1.54-5.27-2.62-10.27-2.91-15.72s-1.63-10.27-3.05-15.41c-1.31-4.74-2.22-9.32-4.05-14.08l.14-90.67.97-23.67c.08-2.03,1.33-5.3,2.22-7.14l10.24,5.33-1.1,54.2Z"/>
    <path class="cls-4" d="M597.75,391.14c-17.03,1.62-35.12,4.59-48.51,15.36-1.01.81-2.89,1.66-4.04,1.99-3.29-4.16-7.79-8.12-12.97-10.59-31.56-15.06-69.71-16.31-103.33-10.1,1-.97,3.21-2.57,4.76-2.7l7.18-.58,12.94-1.13,21.95-.22,14.15.97c-3.62-1.15-6.09-2.49-8.89-4.61s-4.47-3.99-4.09-8.18c.07-.71.76-2.93,1.38-2.59.47.25,1.55.97,1.93,1.38,1.98,2.05,4.34,2.58,6.55,3.84l8.48,4.84c.75.43,3.12,1.75,2.58,2.34l-2.86,3.12c3.26,3.77,12-.15,22.03.01l23,.38c8.33.14,16.69,2.17,24.73,3.94,2.45.54,6.45,4.88,9.24,4.5l19.25-2.57c1.38-.19,3.88-.16,4.51.61Z"/>
    <path class="cls-4" d="M390.73,448.88l-.73,43.51-8.71-1.86-14.58-4.24.28-23.41,14.23-3.27c1.24-.28,3.28-1.53,4.73-2.47l-11.59.63-9.42.59-.07-13.05,7.68,1.55c2.79.56,5.21.17,7.47-1.94.65-.58,2.06,1.58,2.48,2.9l8.24,1.05Z"/>
    <path class="cls-4" d="M703.61,493.15l-13.27.2-.26-36.11-.25-6.32c.82.13,2.12.44,2.14,1.09l.08,2.84c.02.77.07,2.62.71,2.84l2.43.85,7.96,3.45,14.11,2.9-12.89,4.98-10.3,3.04c-.64.19-2.62,1.17-2.13,1.58l1.73,1.48,4.65,4.94-.11-4.92c2.3-1.65,7.84-1.43,9.03,1.39-1.25,2.99-.1,5.49,2.01,7.93-3.02,1.73-5.93,4.4-5.64,7.84Z"/>
    <path class="cls-16" d="M377.06,380.8l5.6-4.45,30.39,5.64c3.1.58,6.29,1.27,8.81,3.06l-8.47,1.55c-14.36.81-27.75.54-42.97.3l6.64-6.1Z"/>
    <path class="cls-4" d="M720.56,490.86l.2,13.25-8.16-1.23c-4.96-.54-9.36-1.82-13.06-4.94,1.52-2.5,4.91-.56,6.08-5.15l5-.94c.29,1.23,1.18,2.44,1.91,3.13s4.14,1.07,4.31.06l.36-3.94,3.36-.24Z"/>
    <path class="cls-4" d="M716.68,438.86l.57,3.79c.14.9-1.68,1.63-2.69,1.61l-15.23-.19c-2.17-.03-5.46-3.71-4.4-6.03,1.11-2.43,5.47-2.46,7.72-2.01l14.03,2.83Z"/>
    <path class="cls-4" d="M426.56,394.43l-1.42.05c-.31.08-.61,1.23-.65,1.61l-.86,9.21-14.57.4.6-2.73c.43-1.48,7.59.41,10.44-6.08l3.5-1.53c.83-2.11,1.72-4.08,2.74-5.07l.23,4.14Z"/>
    <path class="cls-5" d="M703.61,493.15l2.01-.36c-1.18,4.59-4.56,2.65-6.08,5.15l-6.64,2.63-2.4-.13-.16-7.08,13.27-.2Z"/>
    <path class="cls-4" d="M391.2,430.78l-.22,8.7-6.64.76c-1.37.23-3.79-1.72-4.79-3.2l3.68-1.79c2.29-2.14,5.06-3.73,7.97-4.47Z"/>
    <path class="cls-9" d="M718.18,441.11v17.56c-6.45-3.34,3.92-10.68-3.61-14.4,1,.01,2.82-.72,2.69-1.61l-.57-3.79-.18-9.71,1.12-1.53.13,6.44.43,7.05Z"/>
    <path class="cls-5" d="M717.2,491.1l-.36,3.94c-.17,1.01-3.57.63-4.31-.06s-1.62-1.9-1.91-3.13l6.58-.74Z"/>
    <path class="cls-4" d="M689.63,443.08l-.22-8.91,3.67,1.33-1.39,6.36c-.13.61-1.59,1.38-2.06,1.22Z"/>
    <path class="cls-4" d="M374.48,436.39l2.03-.42c.34-.07.8,1.24.47,1.36l-1.35.5c-.48.18-1.65-1.34-1.15-1.44Z"/>
    <path class="cls-5" d="M718.6,595.05l-1.32,8.13-10.61,13.13-18.14,18.67-20.31,1.79-98.73,2.5h-65.18s-99.4-1.83-99.4-1.83l-5.16-2.42c-6.98-4.43-12.5-9.3-18.05-15.14-4.79-5.05-9.33-9.78-12.65-15.53l16.31-2.16c4.21-.61,9.22,2.71,13.17-.86l5.11,3.46,20.07,1.39,53.6.74,33.82.3,10.17,5.43c14.71,5.59,30.27,4.54,44.96-1l1.15,7.01c.33,2,3.22,4.57,5.52,3.38l14.26-7.42,14.09,5.7c1.07.43,4.19.56,4.97-.29,2.3-2.5-.55-7.18,2.45-9.93.77-.71,1.69-1.55,1.75-2.27l.93-.13,34.75.11,22.85-.59c6.32-.16,10.98-2.56,13.92-8.06l4.15-7.75,3.06-7.98c.86-2.24.3-7.08.51-9.47l5.84-.09,10.76-1.25c4.18-.48,7.86-.83,11.76,1.95-2.58,2.64-6.59,6.39-9.84,6.51l-10.87.39-1.03,3.66c-.23.82-3.49.47-3.98,1.17-1.19,1.7,1.91,4.51,4.86,4.29,7.47-.55,10.02,3.39,13.62,2.41,2.91-.8-.36-9.97,5.57-11.52,1.38,6.5-2.54,11.86-1.19,12.57l2.46,1.02Z"/>
    <path class="cls-16" d="M389.97,505.66l-.2,75.54c-.02,5.89.91,12.14,4.95,16.19l3.82,3.94c-3.95,3.57-8.96.25-13.17.86l-16.31,2.16c-1.18-2.04-2.22-5-2.38-7.75l-.9-16.2-.66-24.66-.15-33.09,7.39,1.49c1.74.38,6.28,2.18,6.76.24l1.82-7.48,4.2-1.03c2.38-.58-.61-9.03,4.84-10.22Z"/>
    <path class="cls-16" d="M721.33,536.24l-.15,7.7-.63,37.72-1.95,13.39-2.46-1.02c-1.35-.7,2.58-6.07,1.19-12.57-5.93,1.54-2.66,10.72-5.57,11.52-3.6.99-6.15-2.96-13.62-2.41-2.96.22-6.05-2.59-4.86-4.29.49-.7,3.75-.35,3.98-1.17l1.03-3.66,10.87-.39c3.24-.12,7.26-3.86,9.84-6.51-3.9-2.78-7.58-2.43-11.76-1.95l-10.76,1.25-5.84.09.39-4.52c.1.48,1.74-.83,1.75-1.3l.22-16.28.08-5.87c2.11-.18,3.89-1.82,4.52-4.31,4.14-1.12,9.09-2.22,13.39-2.49l7.29,1.78-.02-4.68,3.06-.04Z"/>
    <path class="cls-1" d="M725.87,543.96l.15,33.12c.01,2.47-3.61,4.47-5.48,4.56l.63-37.72,4.69.03Z"/>
    <path class="cls-1" d="M725.3,539.28l.24-23.47c.7-.31,1.06,1.28,1.08,1.88l.75,18.63c.05,1.17-1.03,2.94-2.07,2.95Z"/>
    <path class="cls-4" d="M692.9,500.56l.85,1.42,24.32,3.23.18,26.39,2.64,1.74c.1.33.45,2.14.44,2.89l-3.06.04c0-.59-.07-2.37-.67-2.31l-2.93.33-7.62-.15-14.07,1.13-.24-23.18c-.01-1.04-1.06-3.39-1.89-3.21l-.35-8.44,2.4.13Z"/>
    <path class="cls-11" d="M699.54,497.94c3.7,3.13,8.1,4.4,13.06,4.94l8.16,1.23.14,29.23-2.64-1.74-.18-26.39-24.32-3.23-.85-1.42,6.64-2.63Z"/>
    <path class="cls-4" d="M390,495.45l-.03,10.21c-5.45,1.19-2.47,9.64-4.84,10.22l-4.2,1.03-1.82,7.48c-.47,1.94-5.02.14-6.76-.24l-7.39-1.49-.03-28.07c4.31-.6,8.07.82,12.2,2.28l12.87-1.41Z"/>
    <path class="cls-16" d="M390,492.39v3.06s-12.87,1.41-12.87,1.41c-4.13-1.46-7.89-2.88-12.2-2.28l.09-6.75,1.69-1.55,14.58,4.24,8.71,1.86Z"/>
    <path class="cls-2" d="M576.51,609.98l-1.26,1.02c-.41.17-1.39-.56-1.27-.84l2.53-.18Z"/>
    <path class="cls-11" d="M366.72,486.28l-1.69,1.55-.08-29.47,9.42-.59,11.59-.63c-1.45.94-3.49,2.18-4.73,2.47l-14.23,3.27-.28,23.41Z"/>
    <path class="cls-6" d="M687.07,591.39l-4.15,7.75c-2.95,5.5-7.6,7.9-13.92,8.06l-22.85.59-34.75-.11-.85-.98.22-2.79c6.26-2.49,13.01-3.25,20.15-3.08l32.66.81c4.35-5.42,12.32-.07,14-5.69,2.18-.04,4.4-.99,6.1-2.43l3.4-2.14Z"/>
    <path class="cls-5" d="M718.27,536.28l.02,4.68-7.29-1.78c-4.3.27-9.26,1.37-13.39,2.49-.63,2.49-2.41,4.13-4.52,4.31l-.08,5.87-.22,16.28c0,.47-1.65,1.77-1.75,1.3l-.06-15.4.06-38.99-.18-6.15c.82-.18,1.88,2.17,1.89,3.21l.24,23.18,14.07-1.13,7.62.15,2.93-.33c.6-.07.67,1.72.67,2.31Z"/>
    <g>
      <path class="cls-13" d="M423.63,405.29c-.08.89-.35,2.97-.87,3.73l-4.37,6.34c-1.26,1.83-4.35,4.6-5.07,7.11l-1.03,61.25.08,80.83c0,5.52,4.74,9.93,9.95,10.49,18.4,1.99,36.32,2.5,54.82,3.18l11.11.41c13.03.48,25.54,1.08,38.14,4.26,8.44,5.25,18.42,6.46,27.94,4.24l10.09-4.14c1.6,3.47,1.93,6.08,1.82,9.2-6.15,4.06-13.58,4.4-21.1,4.44-8.53.04-16.69-.98-23.15-6.8-3.61-3.26-9.24-3.27-14.22-3.52l-11.95-.59-62.33-.71-23.24-.49-5.12-4.22c-.77-.63-1.98-2.23-2.48-3.11-1.06-1.84-1.82-5.13-1.82-7.9l.41-123.19.66-27.85.28-7.18c1.37-2.31,4.06-5.29,6.88-5.36l14.57-.4Z"/>
      <path class="cls-10" d="M689.4,434.17l.22,8.91.21,7.84.25,6.32.26,36.11.16,7.08.35,8.44.18,6.15-.06,38.99.06,15.4-.39,4.52c-.21,2.39.35,7.23-.51,9.47l-3.06,7.98-3.4,2.14c-1.7,1.44-3.92,2.39-6.1,2.43l-21.57.37-7.38-.32h-38.16s0-2.11,0-2.11l.05-20.14c0-.57.66-2.51.92-2.57l52.52,2.11,5.85-.26c.88.99.27,3.78-.56,5.04-.88,1.34-4.13,2.12-6.07,2.16l-47.64.92c-1.32.9-1.83,3.92-1.2,6.06l65.27-.08,9.05-9.44-.26-63.49-.82-45.06-.54-13.58-.1-31.39.18-4.41c.97,1.22,2.06,4.12,2.1,5.86l.21,8.55Z"/>
      <path class="cls-10" d="M402.19,411.05l-.28,7.18-.66,27.85-.41,123.19c0,2.77.76,6.05,1.82,7.9-.93-.01-2.17.63-2.71,1.21s1.04,2.45,1.77,2.7l2.73.93c.4.14.53-1.55.69-1.74l5.12,4.22-1.33,5.8c-.2.72-1.82,2.25-2.52,2.09-3.12-2.2-7.74-6.55-8.03-10.93l-.76-11.3-.12-60.25c-.01-5.4,1.78-11.05.12-16.32-2.17-6.87-.23-13.45-.03-20.01l.34-11.34.32-43.37c.02-2.79,1.77-6.61,3.93-7.8Z"/>
      <path class="cls-9" d="M686.08,419.04l.83,5.13.1,31.39-1.82-.68v-28.92c-.54-4.5-3.1-9.31-7.93-9.85l-8.78-1.16.11-2.44,8.09.46c4.65.27,8.04,1.75,9.41,6.07Z"/>
      <path class="cls-13" d="M687.09,419.76l-.18,4.41-.83-5.13c.12.07.82.48,1,.72Z"/>
      <path class="cls-13" d="M687.01,455.56l.54,13.58.82,45.06.26,63.49-9.05,9.44-65.27.08c-.63-2.14-.12-5.16,1.2-6.06l47.64-.92c1.94-.04,5.19-.82,6.07-2.16.83-1.26,1.44-4.05.56-5.04l1.2-1.65,1.46-2.01c.34-.47.61-1.59.88-2.58l-.02-72.04-.83-4.38-.47-68.22-2.93-3.59-.24-1.15-.3-1.05-.06-1.41,8.78,1.16c4.83.54,7.39,5.35,7.92,9.85v28.92s1.83.68,1.83.68Z"/>
      <path class="cls-2" d="M566.23,592.17l6.2-3.41.58,20.74c-6.73-.88-13.68-1.7-20.75-.72-4.79.66-9.87,1.23-14.65.19l-9.69-2.1c-7.51-2.93-14.19-5.07-22.27-5.75l-12.34-1.03-44.97-.46-12.84-.59-21.85-1.14c-1.49-.08-4.74-1.57-6.17-2.18-.8-.34-1.07-2.72-1.07-3.35.7.17,2.32-1.36,2.52-2.09l1.33-5.8,23.24.49,62.33.71,11.95.59c4.97.25,10.6.26,14.22,3.52,6.45,5.82,14.62,6.84,23.15,6.8,7.51-.04,14.95-.38,21.1-4.44Z"/>
      <path class="cls-10" d="M418.47,472.54c-.15-.11-1.05.92-.73,1.2l.73.53-.16,89.05.09,1.07,1.05,2.36c1.13,2.54,4.42,3.54,7.67,3.4,32.18-1.38,63.02-2.39,94.65,2.89,5.55.93,7.84,4.77,11.55,8.1,5.21,3.15,13.48,1.35,19.29,1.67,4.29.24,6-1.6,8.36-4.66s7.74-4.13,11.4-4.54l.07,15.14-6.2,3.41c.11-3.12-.23-5.73-1.82-9.2l-10.09,4.14c-9.51,2.22-19.49,1.01-27.94-4.24-12.61-3.18-25.12-3.78-38.14-4.26l-11.11-.41c-18.5-.68-36.42-1.19-54.82-3.18-5.2-.56-9.94-4.98-9.95-10.49l-.08-80.83,1.03-61.25c.72-2.51,3.81-5.28,5.07-7.11l.08,57.18Z"/>
      <path class="cls-2" d="M402.66,577.17c.5.88,1.72,2.48,2.48,3.11-.16.19-.3,1.87-.69,1.74l-2.73-.93c-.74-.25-2.31-2.12-1.77-2.7s1.78-1.22,2.71-1.21Z"/>
      <path class="cls-2" d="M677.57,595.95c-1.68,5.62-9.66.27-14,5.69l-32.66-.81c-7.14-.18-13.89.59-20.15,3.08l-.31-7.91h38.16s7.38.32,7.38.32l21.57-.37Z"/>
      <path class="cls-5" d="M418.46,474.27l-.73-.53c-.32-.28.58-1.31.73-1.2v1.73Z"/>
      <path class="cls-5" d="M418.39,564.39l-.09-1.07.09,1.07Z"/>
      <g>
        <path class="cls-14" d="M609.49,571.12l-1.49-3.56c-.35-.83-2.33-1.82-3.26-1.63l-8.29,1.66c-.33-1.04-3.19-2.11-4.45-1.94l-11.08,1.51-7.1-.62.74,3.84.08,1.59-.56,2.42.34,6.86-.56,21.37c-.02.79.38,2.67.72,3.36.42.87,3.32.07,4.2-.51l13.16-8.68c6.05,4.17,9.92,7.56,17.51,10.31l.19-13.12.83-.09v2.12s.31,7.91.31,7.91l-.22,2.79-.08,1.11c-.05.72-.97,1.56-1.75,2.27l-3.18-.53-5.87-4.11-1.02-.65-6.86-4.53-13.51,9.37-1.76.36-2.53.18-.96-.66-.58-20.74-.07-15.14.02-11.73c12.68-2.91,24.03-4.38,37.19-4.33l-.08,13.57Z"/>
        <path class="cls-2" d="M598.65,604.79l-.9,1.57c-.12.32,1.14.67,1.31.36l.61-1.28,5.87,4.11-27.26.08,13.51-9.37,6.86,4.53Z"/>
        <path class="cls-2" d="M611.42,571.17c-.26.06-.92,2-.92,2.57l-.05,20.14-.83.09-.14-22.86,1.93.05Z"/>
        <polygon class="cls-2" points="611.39 607.68 610.46 607.81 610.54 606.7 611.39 607.68"/>
        <path class="cls-15" d="M609.49,571.12l.14,22.86-.19,13.12c-7.59-2.75-11.46-6.15-17.51-10.31l-13.16,8.68c-.88.58-3.78,1.38-4.2.51-.34-.7-.74-2.58-.72-3.36l.56-21.37,14.17.41,7.66-1.43,8.94-.14c.52,0,1.53.44,2.58.98l.24-13.51,1.49,3.56Z"/>
        <path class="cls-7" d="M608,567.56l-.24,13.51c-1.04-.55-2.06-.99-2.58-.98l-8.94.14-7.66,1.43-14.17-.41-.34-6.86.56-2.42-.08-1.59,21.9-2.79,8.29-1.66c.93-.19,2.91.81,3.26,1.63Z"/>
        <path class="cls-15" d="M596.45,567.58l-21.9,2.79-.74-3.84,7.1.62,11.08-1.51c1.27-.17,4.13.9,4.45,1.94Z"/>
        <path class="cls-6" d="M599.67,605.44l-.61,1.28c-.17.3-1.43-.04-1.31-.36l.9-1.57,1.02.65Z"/>
        <path class="cls-15" d="M574.08,574.38l.56-2.42-.56,2.42Z"/>
      </g>
      <g>
        <path class="cls-12" d="M668.58,412.51l-.11,2.44.06,1.41.3,1.05.24,1.15.41.48-1.12,4.3,1.26,83.17.33,43.15-6.04,3.57-33.27-2.92c-23.43-2.05-57.89,1.41-77.94,13.39-.44,0-1.08-2.22-1.07-2.95l.07-22.72-.27-29.36-.5-98.93c0-1.03-.96-3.09-1.68-3.2,13.39-10.77,31.48-13.74,48.51-15.36,21.15-2.02,42.25.13,63.47,4.29,3.54.69,7.24,2.34,7.28,6.67l.09,10.41ZM644.1,436.72c1.13-3.86.95-6.64-.08-9.75-25.19-3.2-50.12-2.45-74.6,4.45-2.18,2.49-2.13,6.86-.34,9.95,24.56-7.14,49.07-7.88,75.03-4.65ZM644.2,464.84c1.35-3.94,1.26-6.82-.11-9.99-25.23-3.03-50.24-2.44-74.74,4.52-1.91,2.48-1.77,6.85-.23,9.78,24.81-6.52,49.38-7.54,75.08-4.31ZM644.55,493.29c1.64-3.8,1.53-7.05-.24-9.89-25.42-3.09-50.73-2.49-75.43,4.26-1.01,3.08-1.04,5.94-.21,9.67,25-6.36,49.84-7.43,75.87-4.05Z"/>
        <path class="cls-12" d="M545.19,408.49l-2.77-.85-.35,150.53-.67,5.65c-3.77-3.92-9.49-6.1-14.98-8.07-28.68-10.3-59.57-10.1-89.96-7.58-4.37.36-7.34-.46-10.43-3.36l.53-150.38-.23-4.14,2.56-2.49c33.62-6.22,71.77-4.96,103.33,10.1,5.18,2.47,9.68,6.44,12.97,10.59ZM526.51,437.22l.35-9.32c-16.17-5.98-32.42-9.9-49.67-9.77l-25.24.19c-1.15,3.41-1.15,6.66,0,9.64l19.29-.13c19.07-.13,36.68,3.21,55.26,9.39ZM526.96,454c-25.44-8.39-49.29-9.68-74.77-8.39-1.8,3.06-1.83,7.51.34,9.85,25.63-1.98,49.83.85,74.17,7.97l.26-9.43ZM526.42,490.34l.46-9.61c-25.44-7.54-48.75-9.36-74.99-7.58-1.6,3.2-1.63,7.48.41,9.93,25.57-2.01,49.47.29,74.13,7.26ZM523.32,516.95c.97.26,3.07-.11,3.17-.7l.42-2.53c.82-4.97-1.35-6.82-5.12-7.6-23.11-4.78-46.27-7.41-70.07-4.95-1.4,2.98-1.45,6.86.14,9.54l16.86-.36c18.55-.4,36.23,1.65,54.61,6.6Z"/>
        <path class="cls-3" d="M541.4,563.82l5.15,5.36,6.15-5.49c20.06-11.97,54.51-15.44,77.94-13.39l33.27,2.92,6.04-3.57-.36,6.33c-.49,8.56-12.43,4.89-21.37,5.75l20.22,3.1,3.21,2.98v1.53s-.66,2.01-.66,2.01l-1.2,1.65-5.85.26-52.52-2.11-1.93-.05.08-13.57c-13.16-.05-24.5,1.42-37.19,4.33l-.02,11.73c-3.66.4-9.02,1.46-11.4,4.54s-4.07,4.9-8.36,4.66c-5.81-.33-14.08,1.48-19.29-1.67-3.7-3.33-5.99-7.18-11.55-8.1-31.64-5.28-62.48-4.27-94.65-2.89-3.25.14-6.54-.86-7.67-3.4l3.59-3.29,1.43-2.51c.25-.44,1.91-.12,2.71.09,25.03-3.28,49.2-1.69,75.26-1.34-20.37-6.42-48.01-3.92-70.33-2.08-2.96.24-8.01-.74-8.56-4.58-.32-2.24,1.58-6.23,2.49-8.23,3.09,2.91,6.06,3.73,10.43,3.36,30.39-2.52,61.28-2.72,89.96,7.58,5.48,1.97,11.21,4.15,14.98,8.07Z"/>
        <path class="cls-17" d="M552.7,563.68l-6.15,5.49-5.15-5.36.67-5.65.35-150.53,2.77.85c1.15-.33,3.03-1.17,4.04-1.99.72.11,1.68,2.18,1.68,3.2l.5,98.93.27,29.36-.07,22.72c0,.74.64,2.96,1.07,2.95Z"/>
        <path class="cls-17" d="M644.2,464.84c-25.7-3.23-50.26-2.21-75.08,4.31-1.55-2.92-1.68-7.3.23-9.78,24.49-6.96,49.51-7.55,74.74-4.52,1.37,3.16,1.46,6.04.11,9.99Z"/>
        <path class="cls-17" d="M644.1,436.72c-25.96-3.23-50.47-2.49-75.03,4.65-1.79-3.09-1.83-7.45.34-9.95,24.48-6.91,49.41-7.65,74.6-4.45,1.03,3.11,1.21,5.89.08,9.75Z"/>
        <path class="cls-17" d="M644.55,493.29c-26.03-3.39-50.87-2.31-75.87,4.05-.83-3.73-.8-6.6.21-9.67,24.69-6.75,50.01-7.35,75.43-4.26,1.77,2.83,1.88,6.09.24,9.89Z"/>
        <path class="cls-8" d="M671.65,567.82l-3.21-2.98-20.22-3.1c8.94-.86,20.88,2.8,21.37-5.75l.36-6.33-.33-43.15-1.26-83.17,1.12-4.3,1.14,22.11.56,40.37.46,86.32Z"/>
        <path class="cls-17" d="M672.45,569.35h-.79s-.01-1.53-.01-1.53l-.46-86.32-.56-40.37-1.14-22.11-.41-.48,2.93,3.59.47,68.22.83,4.38.02,72.04c-.27.99-.54,2.11-.88,2.58Z"/>
        <path class="cls-17" d="M668.84,417.4l-.3-1.05.3,1.05Z"/>
        <path class="cls-8" d="M426.56,394.43l-.53,150.38c-.91,2-2.82,5.99-2.49,8.23.55,3.84,5.61,4.82,8.56,4.58,22.31-1.84,49.95-4.34,70.33,2.08-26.06-.35-50.24-1.93-75.26,1.34-.79-.22-2.46-.54-2.71-.09l-1.43,2.51-3.59,3.29-1.05-2.36-.09-1.07.16-89.05v-1.73s-.07-57.18-.07-57.18l4.37-6.34c.52-.76.79-2.84.87-3.73l.86-9.21c.04-.38.34-1.54.65-1.61l1.42-.05Z"/>
        <path class="cls-17" d="M526.42,490.34c-24.66-6.97-48.56-9.27-74.13-7.26-2.04-2.45-2.01-6.73-.41-9.93,26.25-1.78,49.56.03,74.99,7.58l-.46,9.61Z"/>
        <path class="cls-17" d="M523.32,516.95c-18.37-4.96-36.06-7-54.61-6.6l-16.86.36c-1.6-2.68-1.55-6.56-.14-9.54,23.79-2.45,46.96.17,70.07,4.95,3.78.78,5.94,2.63,5.12,7.6l-.42,2.53c-.1.58-2.19.96-3.17.7Z"/>
        <path class="cls-17" d="M526.96,454l-.26,9.43c-24.34-7.13-48.54-9.95-74.17-7.97-2.17-2.33-2.14-6.79-.34-9.85,25.48-1.28,49.33,0,74.77,8.39Z"/>
        <path class="cls-17" d="M526.51,437.22c-18.58-6.18-36.19-9.52-55.26-9.39l-19.29.13c-1.16-2.98-1.16-6.23,0-9.64l25.24-.19c17.24-.13,33.49,3.79,49.67,9.77l-.35,9.32Z"/>
        <polygon class="cls-8" points="670.99 571.37 671.66 569.35 672.45 569.35 670.99 571.37"/>
      </g>
    </g>
    <path class="cls-2" d="M351.8,609.59l-.33-14.06,1.28.22c.33.03.48,1.15.48,1.51l.04,11.35-1.47.99Z"/>
    <path class="cls-2" d="M351.45,592.8l-.18-9.16c.73.26,1.31,3.27,1.21,4.32l-1.03,4.84Z"/>
    <polygon class="cls-18" points="729.11 590.94 728.5 588.91 728.49 537.06 729.2 535.71 729.11 590.94"/>
  </g>
</svg>