<?xml version="1.0" encoding="UTF-8"?>
<svg id="_ÍCONES" data-name="ÍCONES" xmlns="http://www.w3.org/2000/svg" viewBox="380 340 350 310">
  <defs>
    <style>
      .cls-1 {
        fill: #f7f5f5;
      }

      .cls-2 {
        fill: #4c697f;
      }

      .cls-3 {
        fill: #537089;
      }

      .cls-4 {
        fill: #638099;
      }

      .cls-5 {
        fill: #395161;
      }
    </style>
  </defs>
  <g id="configurações">
    <path class="cls-2" d="M582.25,412.63l10.93,4.66,21.08,10.38c.44,3.19-3.72,3.55-8.24,10.41l-10.79,16.38c-2.02,3.07-5.18,5.31-5.72,8.88-5.91-1.85-14.89-9.66-21.39-10.35l-16.03-1.71c-4.96-.53-10.73.62-16.02,1.56-7.77,1.38-14.97,5.81-21.92,10.02-5.72,3.47-9.12,9.99-13.37,15.14-2.28,2.75-3.5,5.35-4.28,8.66l-4.72,20.07-2.41,1.21c-.77.41.3,2.49.4,3.56l.86,8.82c.7,7.17,3.66,14.35,7.12,20.58l12.14,16.81c2.04,2.83,6.94,3.08,14.92,8.71,2.17,1.53,2.7,1.78,5.57,1.84l9.42,2.83c23.18,3.22,34.41-1.6,53.64-15.06,5.62-3.94,9.44-11.04,13.15-17.06,4.86-7.9,6.09-20.49,6.04-31.05l-3.64,17.29c-1.03,4.57-2.52,9.12-5.24,12.24l-6.19,1.77-11.5,3.93c3.4-4.08,5.37-9.19,7.97-14.45,2.17-4.4,2.53-10.49,2.17-15.76l1.79-2.14,3.34,2.06c.87.54,3-.93,3.94-1.43l6.44-3.48-5.47-24.37-2.41-3.93,5.44.72c3.85.71,6.2-2.24,7.35-5.27l2.29-6,7.75.57-1.35-3.93c3.07-1.97,4.33-3.03,6.35-5.51,1.41-1.74,4.86-1.07,6.14,1.37l-.22,6.19-1.32,6.5,12.26-1.61,5.61,28.17c.39,1.96.97,3.61,1.97,4.64l.31,1.37c.09.4,1.15.93,1.62,1.1l23.81,8.57c3.44,1.24,6.15,2.16,8.9,4.65l6.05-2.36c-2.95,14.82-5.79,29.4-11.05,44.16-.85,2.39-5.3,4.75-7.68,5.07-6.13-1.68-12.45-2.39-18.71-3.46l-15.57-2.68-14.14,17.9-6.5,6.98c2.48,2.01,4.61,3.23,7.64,4.73l3.61,5.28,1,4.15,6.11,18.79-4.93-.74c-.56,1.59-1.89,5.22-3.35,5.95l-17.51,8.79-14.22,6.45c-4.25,1.93-8.73,2.23-13.43,1.71-.96-.11-3.65.95-4,.08l-1.4-3.48-9.29-15.17-6.13-10-17.53.53-15.55.03-6.34,9.03-11.13,17.83-8.36,1.6c-8.85-2.52-17.05-6.81-25.14-11.16l-12.73-6.84c-3.15-1.69-6.19-2.56-6.84-6.95l-3.04-.14,3.92-10.71,3.95-9.7.56-1.05.29-.93c.82-2.59,3.87-5.95,6.97-6.45l-10.6,26.01-1.71,2.83,6.13-1.73,10.65-28.11-3.11-1.12c.03-1.74-1.14-3.76-2.64-5.56l-10.53-12.59-6.23-8.24-23.87,2.9-18.64-.86-10.23-43.89-.44-2.15c2.96.19,5.54,1.64,7.31,4.55.57-2.62,1.95-4.95,4.3-5.75l31.2-10.65-9.34-4.82,4.02-17.41,1.44-6.56,9.04-4.46-17.4-17.31c-4.01-3.99-8.85-7.53-11.61-12.02,2,.53,5.29.99,7.06.19l9.56-12.64,2.68,2.69c.63.58,2.61-1.38,3.27-2.06,2-2.06,5.35-.86,7.73,1.04l12.02,9.6c2.14,1.71,1.64,6.97-1.69,8.79l1.59,1.56,21.55-21.73-.65-4.06,3.81,1.96,20.38-9.52,7.89,3.22,2.35-5.21c4.04,2.67,8.68,4.38,12.64,3.88,1.89-.24,5.84-6.19,6.31-3.92l.53,2.57c.21,1.01,1.11,2.97,1.97,3.53s3.47.34,4.44-.17l6.81-3.57,1.45-5.56c.34-1.32,4.03.03,5.06,1.4,3.27-3.18,5.96-3.2,9.9-1.78l6.34,2.28c1.16-.1,4.06-1.84,5.23-1.35Z"/>
    <path class="cls-5" d="M641.51,619.73c1.47,4.52,1.27,13.47-3.51,16.8-12.84,8.95-26.97,15-41.69,20.18-4.79,1.69-12.37,1.25-15.19-2.86l-15-21.82c-.9-1.3-4.36-2.53-5.96-2.53l-18.25-.06c-1.57,0-4.63,1.64-5.59,2.96l-5.85,7.97-6.48,8.75c-3.64,6.37-10.54,10.03-18.16,7.38-15.27-5.32-29.5-13.13-43.24-21.72-3.49-5.21-3.9-12.26-1.98-17.52l3.04.14c.65,4.38,3.69,5.26,6.84,6.95l12.73,6.84c8.09,4.35,16.29,8.64,25.14,11.16l8.36-1.6,11.13-17.83,6.34-9.03,15.55-.03,17.53-.53,6.13,10,9.29,15.17,1.4,3.48c.35.87,3.04-.19,4-.08,4.7.52,9.17.22,13.43-1.71l14.22-6.45,17.51-8.79c1.46-.73,2.79-4.36,3.35-5.95l4.93.74Z"/>
    <path class="cls-5" d="M634.4,596.8l-3.61-5.28c-3.03-1.51-5.16-2.73-7.64-4.73l6.5-6.98,14.14-17.9,15.57,2.68c6.26,1.08,12.59,1.78,18.71,3.46,2.37-.32,6.82-2.68,7.68-5.07,5.26-14.76,8.1-29.34,11.05-44.16l-1.02-2.76,1.14.03c1.71,2.05,2.52,6.67,2.44,10.19-.42,17.16-4.06,33.79-11.03,49.21-2.31,5.12-7.32,7.91-12.64,7.25l-22.55-2.79c-1.59-.2-5.38.4-6.57,1.83l-12.15,15.01Z"/>
    <path class="cls-5" d="M405.5,518.05l10.23,43.89,18.64.86,23.87-2.9,6.23,8.24,10.53,12.59c1.5,1.8,2.67,3.82,2.64,5.56l-1.36,2.12c-3.1.5-6.16,3.86-6.97,6.45l-4.45-4.21-7.66-9.35c-1.63-1.99-4.82-3.12-7.58-2.89l-24.65,2.07c-4.64.39-7.79-3.14-10.5-6.72-6.93-16.79-10.83-34.96-10.83-53.38l.62-2.52c.08-.31,1.58.19,1.23.19Z"/>
    <path class="cls-4" d="M513.06,404.91l5.09,3.43,4.26,3.73-11.08,5.23-20.38,9.52-3.81-1.96-21.41-13.47c-1.75-1.1-6.76-2.9-8.14-1.36l-16.96,18.99-9.56,12.64c-1.77.8-5.06.34-7.06-.19l-1.06-.97c.37-1.07,1.03-2.85,1.7-3.76,9.09-12.52,18.29-24.27,30.01-34.49,3.02-2.63,10.7-2.19,13.78-.25l22.22,14.06,16.17-7.62,6.24-3.54Z"/>
    <path class="cls-4" d="M680.53,441.21l-1.38,3.35-5.58-.22-9.22-12.32-6.65-7.67-8.82-10.3-6.32,2.65c-1.44-1.12-2.86-2.36-3.92-2.45s-3.32,1.71-3.72,2.76c-1.21,3.19-4.42,2.92-6.78,3.66-4.73,1.48-9.84,4.98-13.89,7.02l-21.08-10.38-10.93-4.66,3.3-3.8,1.28.35,1.01,1.68c9.17,3.52,17.12,8.38,25.31,13.97l2.45-7.85,23.71-13.16c5.74-3.19,12.29,1.46,16.22,5.38l5.21,5.2c8.01,7.99,13.83,17.58,19.79,26.81Z"/>
    <path class="cls-4" d="M581.47,368.72c.62,1.96,1.26,4.07,1.4,5.87l-4.95,2.56-4.5-3.06-38.99.03c-3.25,0-6.17,1.32-8.61,3.69-1.34-2.32-3.56-4.5-6.02-4.27l.14-1.19,1.55-1.63,1-1.03c2.25-2.32,5.82-2.98,9.44-3.2,13.5-.79,43.81-2.11,49.53,2.22Z"/>
    <path class="cls-5" d="M684.27,455.86c-.57,2.69-1.71,5.43-3.71,7.5l-13.03,13.44-4.52,5.82c-.19-.08-1.51-2.76-2.29-3.2l-9.54-4.92-.35-1.53c-.09-.41.66-1.23,1.03-1.55l8.35-7.17,10.74-9.64c1.76-1.58,4.27-4.27,6.32-4.68,1.6-.05,4.57,1.03,6.47,1.69l.53,4.25Z"/>
    <path class="cls-5" d="M424,441.48c2.76,4.5,7.6,8.04,11.61,12.02l17.4,17.31-9.04,4.46-1.44,6.56-.07-2.89-18.78-21.9c-3.7-4.32-2.25-12.17-.74-16.52l1.06.97Z"/>
    <path class="cls-4" d="M438.52,499.23l9.34,4.82-31.2,10.65c-2.35.8-3.73,3.13-4.3,5.75-1.77-2.91-4.35-4.37-7.31-4.55.36-4.42,4.55-6.91,8.77-8.33l24.69-8.34Z"/>
    <path class="cls-4" d="M695.14,513.98l.62,2.08,1.02,2.76-6.05,2.36c-2.75-2.5-5.46-3.42-8.9-4.65l-23.81-8.57c-.47-.17-1.53-.7-1.62-1.1l-.31-1.37,1.51-.99,8.51-3.5c1.29,1.07,3.38,2.47,5.09,3.1l18.81,6.86c1.88.69,4.1,1.8,5.14,3.03Z"/>
    <path class="cls-5" d="M593.32,404.75l-6.49,4.44-1.28-.35-2.68-34.24c-.14-1.81-.78-3.92-1.4-5.87,2.4,1.82,6.85,5.07,7.41,8.53l4.44,27.5Z"/>
    <path class="cls-2" d="M663.02,482.62l3.08,18.36-8.51,3.5-2.04-11.21-4.36-18.78,9.54,4.92c.77.44,2.09,3.12,2.29,3.2Z"/>
    <path class="cls-3" d="M615.61,416.98l-2.45,7.85c-8.2-5.59-16.14-10.45-25.31-13.97l-1.01-1.68,6.49-4.44,3.42,2.74,18.88,9.5Z"/>
    <polygon class="cls-2" points="519.81 373.55 518.64 389.44 516.98 405.29 518.15 408.34 513.06 404.91 518.21 374.2 519.95 372.36 519.81 373.55"/>
    <path class="cls-2" d="M684.27,455.86l-.53-4.25c-1.89-.65-4.86-1.74-6.47-1.69l1.87-5.37,1.38-3.35c2.78,4.31,4.8,9.68,3.75,14.65Z"/>
    <path class="cls-5" d="M468.46,596.85l.56-1.05-.56,1.05Z"/>
    <path class="cls-3" d="M679.15,444.56l-1.87,5.37c-2.05.4-4.56,3.09-6.32,4.68l-10.74,9.64-8.35,7.17c-.37.32-1.12,1.14-1.03,1.55l.35,1.53,4.36,18.78,2.04,11.21-1.51.99c-.99-1.03-1.58-2.68-1.97-4.64l-5.61-28.17-12.26,1.61,1.32-6.5.22-6.19c-1.28-2.44-4.73-3.11-6.14-1.37-2.01,2.48-3.28,3.54-6.35,5.51l1.35,3.93-7.75-.57-2.29,6c-1.16,3.03-3.51,5.98-7.35,5.27l-5.44-.72c-3.77-6.15-8.83-11.76-14.32-16.29.54-3.57,3.7-5.81,5.72-8.88l10.79-16.38c4.52-6.86,8.68-7.22,8.24-10.41,4.06-2.04,9.16-5.54,13.89-7.02,2.36-.74,5.57-.47,6.78-3.66.4-1.04,2.66-2.85,3.72-2.76s2.48,1.33,3.92,2.45l6.32-2.65,8.82,10.3,6.65,7.67,9.22,12.32,5.58.22ZM632.2,453.65c.9-.53,2.56-2.76,1.84-3.24l-2.63-1.74-3.44-5.36-6.17-.13,3.26,12.45,5.51,2.08,1.63-4.08Z"/>
    <path class="cls-5" d="M589.5,463.35c5.49,4.53,10.55,10.14,14.32,16.29l2.41,3.93,5.47,24.37-6.44,3.48c-.93.5-3.06,1.97-3.94,1.43l-3.34-2.06-1.79,2.14c-.2-2.96-1.26-6.13-2.22-8.71-4.65-12.47-13.66-22.51-24.24-27.02-14.06-5.99-27.9-4.53-40.4,2.29s-20.99,20.62-22,35.3l-4.1-1.4-4.88-2.9-6.34-2.85-.25-.91,4.72-20.07c.78-3.31,2.01-5.91,4.28-8.66,4.26-5.15,7.65-11.67,13.37-15.14,6.95-4.21,14.15-8.64,21.92-10.02,5.29-.94,11.06-2.09,16.02-1.56l16.03,1.71c6.5.69,15.48,8.5,21.39,10.35Z"/>
    <path class="cls-3" d="M582.87,374.6l2.68,34.24-3.3,3.8c-1.16-.5-4.06,1.25-5.23,1.35l-6.34-2.28c-3.94-1.42-6.63-1.39-9.9,1.78-1.03-1.37-4.72-2.71-5.06-1.4l-1.45,5.56-6.81,3.57c-.98.51-3.58.74-4.44.17s-1.76-2.52-1.97-3.53l-.53-2.57c-.47-2.27-4.42,3.68-6.31,3.92-3.97.5-8.6-1.21-12.64-3.88l-2.35,5.21-7.89-3.22,11.08-5.23-4.26-3.73-1.17-3.05,1.66-15.86,1.17-15.88c2.46-.23,4.68,1.95,6.02,4.27,2.44-2.38,5.36-3.69,8.61-3.69l38.99-.03,4.5,3.06,4.95-2.56ZM552.11,415.99l1.16-4.81c-1.39-.69-4.11-1.86-5.56-2.2-.65-.15-2.84,2.05-2.29,2.42s1.82.97,2.5,1.04l2.76.3c.47.05.55,1.15.45,1.62l-.55,2c-.1.37,1.43.01,1.53-.38Z"/>
    <path class="cls-4" d="M491.76,506.74l.25.91c-.41,9,1.75,17.4,5.23,26.08l3.53,6.33,2.26,3.96,8.23,10.03,10.45-1.91c.69-.13,2.31-.69,2.65-1.31l7.87,4.13c13.55,7.1,29.59,5.84,42.61-1.9,3.34,2.1,7.47,2.02,11.47,1.93,2.64-.05,4.54.06,5.83-2.49,4.79-4.49,9.21-9.38,11.6-15.05,2.72-3.12,4.21-7.67,5.24-12.24l3.64-17.29c.05,10.56-1.18,23.16-6.04,31.05-3.71,6.03-7.53,13.13-13.15,17.06-19.23,13.46-30.46,18.28-53.64,15.06l-9.42-2.83c-2.88-.06-3.4-.31-5.57-1.84-7.98-5.63-12.87-5.88-14.92-8.71l-12.14-16.81c-3.46-6.23-6.43-13.41-7.12-20.58l-.86-8.82c-.1-1.07-1.18-3.15-.4-3.56l2.41-1.21Z"/>
    <path class="cls-3" d="M487.13,424.87l.65,4.06-21.55,21.73-1.59-1.56c3.33-1.82,3.83-7.08,1.69-8.79l-12.02-9.6c-2.38-1.9-5.73-3.1-7.73-1.04-.66.68-2.64,2.64-3.27,2.06l-2.68-2.69,16.96-18.99c1.38-1.55,6.39.25,8.14,1.36l21.41,13.47Z"/>
    <polygon class="cls-3" points="476.28 588.42 477.64 586.29 480.75 587.41 470.09 615.52 463.97 617.26 465.68 614.43 476.28 588.42"/>
    <path class="cls-2" d="M632.2,453.65l-1.63,4.08-5.51-2.08-3.26-12.45,6.17.13,3.44,5.36,2.63,1.74c.72.48-.94,2.71-1.84,3.24Z"/>
    <path class="cls-1" d="M596.19,512.93c.36,5.27,0,11.36-2.17,15.76-2.6,5.26-4.57,10.37-7.97,14.45-3.11,3.73-7.19,7.52-11.22,9.91-13.02,7.75-29.06,9.01-42.61,1.9l-7.87-4.13c-4.52-3.47-8.6-7.94-11.48-13.14-3.93-7.1-6.1-14.74-5.54-22.89,1.01-14.69,9.08-28.26,22-35.3s26.34-8.28,40.4-2.29c10.58,4.51,19.58,14.55,24.24,27.02.96,2.58,2.02,5.74,2.22,8.71Z"/>
    <path class="cls-2" d="M507.33,514.8c-.56,8.15,1.61,15.79,5.54,22.89l-12.11,2.37-3.53-6.33c-3.47-8.68-5.64-17.09-5.23-26.08l6.34,2.85,4.88,2.9,4.1,1.4Z"/>
    <path class="cls-2" d="M552.11,415.99c-.09.39-1.63.75-1.53.38l.55-2c.1-.47.02-1.57-.45-1.62l-2.76-.3c-.68-.07-1.95-.68-2.5-1.04s1.64-2.57,2.29-2.42c1.45.34,4.17,1.51,5.56,2.2l-1.16,4.81Z"/>
    <path class="cls-3" d="M603.73,537.45c-2.39,5.67-6.81,10.56-11.6,15.05-1.29,2.56-3.19,2.44-5.83,2.49-4,.08-8.13.16-11.47-1.93,4.02-2.39,8.11-6.18,11.22-9.91l11.5-3.93,6.19-1.77Z"/>
    <path class="cls-3" d="M512.87,537.69c2.88,5.2,6.96,9.67,11.48,13.14-.34.62-1.96,1.18-2.65,1.31l-10.45,1.91-8.23-10.03-2.26-3.96,12.11-2.37Z"/>
    <polygon class="cls-2" points="696.91 516.09 695.77 516.06 695.14 513.98 696.91 516.09"/>
    <path class="cls-3" d="M521.5,370.73l1-1.03-1,1.03Z"/>
  </g>
</svg>