<?xml version="1.0" encoding="UTF-8"?>
<svg id="_ÍCONES" data-name="ÍCONES" xmlns="http://www.w3.org/2000/svg" viewBox="360 300 400 350">
  <defs>
    <style>
      .cls-1 {
        fill: #8c4915;
      }

      .cls-2 {
        fill: #f7ba1a;
      }

      .cls-3 {
        fill: #763c11;
      }

      .cls-4 {
        fill: #c8975a;
      }

      .cls-5 {
        fill: #b0601a;
      }

      .cls-6 {
        fill: #a05417;
      }

      .cls-7 {
        fill: #844313;
      }

      .cls-8 {
        fill: #fcc928;
      }

      .cls-9 {
        fill: #6b8a2c;
      }

      .cls-10 {
        fill: #ce7a2b;
      }

      .cls-11 {
        fill: #526a27;
      }

      .cls-12 {
        fill: #65842c;
      }

      .cls-13 {
        fill: #bb671e;
      }

      .cls-14 {
        fill: #a75a18;
      }

      .cls-15 {
        fill: #a17245;
      }

      .cls-16 {
        fill: #c17e13;
      }
    </style>
  </defs>
  <g id="dsitintivo">
    <path class="cls-3" d="M695.35,542.25l-.55,5.66c-.62,6.44-1.48,12.5-5.51,17.72-9.34,12.11-17.76,24.86-29.42,35-8.31,7.23-17.66,13.15-27.16,18.51l-31.65,17.84c-11.05,6.23-22.11,11.69-34,16.03l-19.18,7.01c-6.82,2.49-14.34,2.02-20.92-.58l-26.37-10.4c-22.42-10.14-42.93-23.03-63.84-36.04l-18.52-13c-11.3-10.35-19.82-22.63-28.63-35.05-2.17-3.06-3.41-6.03-4.64-9.74l10.06-5.57,4.92,1.71,7.09,9.63,3.56,4.64,13.87,16.25c4.28,5.01,10.04,8.16,15.58,11.71l6.21,3.97c13.33,8.54,26.34,17.11,40.71,24.68s30.15,14.67,46.58,19.49c4.57,1.34,10.54-.29,14.94-2.01l31.91-12.5,19.74-10.7,27.91-16.13,4.23-1.99,2.14,3.03c5.08-.28,8.55-4.66,8.08-9.74l9.24-6.48,5.24,7.92c3.64-3.11,5.94-5.12,8.17-8.44l21.88-31.88,5.7,3.29,1.18-14.23,1.43.41Z"/>
    <path class="cls-13" d="M589.65,329.42c-1.68,4.58-7.07,5.27-10.43,9.9l28.67,7.77,43.53,6.87c3.81.6,7.81,1.49,9.87,3.71l-8.43,2.38-11.71.63-17.76-1.66-11.59-1.03c-6.65-.59-12.6-1.71-19.29-3.85.8,7.54,10.12,6.92,13.58,7.56l7.72,1.43,4.5-.46c.96-.1,2.04,1.7,3.02,2.99l9.18,1.26c1.42.2,3.29-.77,4.36-2.1l12.02,1,16.15,1.45,8-.43c13.01,13.33,12.78,12.54,14.17,33.29.09,1.39.85,3.09,1.82,3.36l.81,33.05c-11.94-.85-25.73,5.86-34.16-1.51l-1.39-25.96c-.29-5.48-2.63-11.06-5.44-15.01-.5-.7-1.49-1.96-1.79-2.77-1.07-2.81-4.83-5.58-8.91-5.97-15.34-1.45-30.17-3.44-45.05-7.43l-24.14-8.88-16.17-6.77-.45-1.3-3.47-2.15,8.06-1.58c9.8-3.44,18.27-9.74,24.35-17.8l-7.75-2.54c-.04-1.98.66-4.66,1.53-6.36l2.8-5.3,13.81,4.19ZM584.44,350.38c-.64-.11-.22,2.8.43,2.73l2.55-.3c.65-.08-.38-1.99-1.03-2.1l-1.95-.33Z"/>
    <path class="cls-10" d="M575.85,325.23l-2.8,5.3c-.87,1.7-1.57,4.38-1.53,6.36l-1.75-.46-28.1-7.92c-4.57-1.29-9.94,1.33-14.28,2.75l-19.82,6.48-26.29,7.92-22.62,4.17c-.59.11-2,.59-2.05,1.07-3.63-.88-8.28.24-12.52.77-7.9.99-15.9,1.39-23.53,3.89l-12.76,11.58c-3.78,3.43-7,6.69-9.45,10.82-.34-.14-2.87-.59-2.63-1.25,2.22-5.99,16.25-17.3,23.49-23.44l-3-9.72c1.12-.67,4.01-1.24,5.56-1.45l49.02-6.46c10.76-1.42,20.65-5.37,31.01-8.55l33.92-10.41c3.4-1.04,8.43-.79,11.82.21l28.34,8.35Z"/>
    <path class="cls-10" d="M666.77,344.84l-4.44,8.73,4.46,4.56,9.24,9.44c3.71-.3,5.58.02,9.52,1.04l-1.33,7.83,2.53,2.75c-.25.56-.76,3.38-.7,4.62l.99,19.69c-.97-.26-1.73-1.97-1.82-3.36-1.39-20.75-1.17-19.96-14.17-33.29l-5.61-5.75-4.14-3.43c-2.06-2.22-6.06-3.11-9.87-3.71l-43.53-6.87-28.67-7.77c3.37-4.63,8.75-5.32,10.43-9.9,15.25,4.63,30.36,7.41,46.2,9.79l27.13,4.09c.88.13,3.03,1.01,3.79,1.53Z"/>
    <path class="cls-1" d="M394.51,383.18l-2.72,38.89-.33,13.1-.15,32.61c-2.8,3.59-1.11,9.17-.15,13.07l.24,9.22,1,18.22c-4.01-.06-5.87,2.94-8,7.23-.95-2.79-1.55-5.69-1.54-8.36l.07-18.88c1.58.47,3.41.81,4.7.64-.62-5.03-2.2-8.79-5.56-11.62v-25.35c-.24-.24-.9-1.02-1.19-1.22l.25-4.3,1.76-.3.26-27.84.9-20.5,1.52-17.98c.06-.68-.79-3.03-1.44-2.86.09-1.2,1.36-3.52,1.76-4.55l8.86,5.32-.24,5.47Z"/>
    <path class="cls-6" d="M697.26,375.78c.75,1.1,1.05,3.95,1.15,5.56l.84,13.77-1.38,1.5.09,27.74-1.25,15.52-1.79,8.48c-.74,3.5-.45,6.02,2.67,8.34.95.7,1.45,3.76.45,4.54-1.16.9-3.07,3.06-3.17,4.42-.86,12.51-3.21,26.51-8.4,36.51l-.29-2.69,1.17-23.8.55-26.79-.07-12.34-.81-33.05-.99-19.69c-.06-1.24.46-4.06.7-4.62l5.62-2.59c1.4-.64,3.36-1.22,4.89-.81Z"/>
    <path class="cls-1" d="M695.35,542.25l-1.43-.41c.18-2.16-.81-4.46-2.06-6.72l1.54-10.25c.3-1.96-.51-6.17-1.05-8.12-.49-1.77-5.01-3.06-6.69-3.04l.83-11.54c5.18-10,7.54-24,8.4-36.51.09-1.36,2.01-3.52,3.17-4.42,1-.78.5-3.84-.45-4.54-3.12-2.32-3.41-4.84-2.67-8.34l1.79-8.48,1.25-15.52-.09-27.74,1.38-1.5c.24,3.9.23,7.62-.37,11.74-.75,5.15.76,10.21.76,15.2l.06,57.08-2.94,59.1c-.46,1.01-1.33,3.08-1.42,4.02Z"/>
    <path class="cls-7" d="M392.4,508.29l.04,1.8c-.16.05-1.39.71-1.05.83l1.65.57.24,3.08-1.35.27c-1.18.44.54,2.29.48,6.49l-.03,2.19c0,.52,1.08.66,1.68.59l2.63,22.63,3.27,4.59-4.92-1.71-10.06,5.57c-2.19-19.72-3.25-39.42-3.93-59.23l.03-1.07-.78-33.67.59-10.5c.29.19.95.97,1.19,1.22v25.35c3.36,2.83,4.94,6.59,5.56,11.62-1.29.17-3.12-.17-4.7-.64l-.07,18.88c-.01,2.68.59,5.58,1.54,8.36,2.12-4.3,3.99-7.29,8-7.23Z"/>
    <path class="cls-13" d="M416.19,343.54l3,9.72c-7.24,6.14-21.27,17.45-23.49,23.44-.25.66,2.29,1.11,2.63,1.25-1,1.68-1.26,4.51-1.84,7.5l-1.98-2.28.24-5.47-8.86-5.32c1.4-3.53,4.37-6.8,7.28-9.6,7.38-7.1,14.33-14.02,23.02-19.25Z"/>
    <path class="cls-13" d="M697.26,375.78c-1.52-.41-3.49.17-4.89.81l-5.62,2.59-2.53-2.75,1.33-7.83c-3.94-1.02-5.81-1.34-9.52-1.04l-9.24-9.44-4.46-4.56,4.44-8.73,5.89,4.05,19.94,20.09,4.66,6.81Z"/>
    <path class="cls-7" d="M381.13,446.42l.11-21-.13-1.25.71-7.16.28-11.86,2.02-28.21c.65-.17,1.5,2.18,1.44,2.86l-1.52,17.98-.9,20.5-.26,27.84-1.76.3Z"/>
    <path class="cls-6" d="M679.09,548.86c-.6,2.54-1.8,5.5-3.74,7.84l-23.62,28.46-9.24,6.48-10.22,6.71-4.23,1.99-27.91,16.13-19.74,10.7-31.91,12.5c-4.4,1.72-10.36,3.35-14.94,2.01-16.43-4.83-31.54-11.57-46.58-19.49s-27.37-16.14-40.71-24.68l1.85-4.06,6.81,2.83c.88-1.4,1.95-3.61,2.09-4.83.18-1.67-1.87-2.83-4.26-3.68,4.69-4.94,9.22-4.49,12.02-8.15l12.55,8.11,17.17,9.93,35.9,16.79c3.2,1.5,10.2,1.44,13.33.14l24.9-10.29,6.27-3.64c22.16-12.88,53.34-29.69,66.48-52.07l23.57.5,14.16-.25Z"/>
    <path class="cls-14" d="M421.3,477.31c.52,17.08.84,34.55,3.94,51.92l3.35,11.15c1.2,3.99,2.67,8.56,5.55,11.54l-7.14-.11-16.48,5.98c-1.4.51-3.05,1.79-3.46,3.17l-7.09-9.63-3.27-4.59-2.63-22.63-.78-9.53-.24-3.08-.1-1.35c-.02-.21-.18-.27-.5-.05l-.04-1.8-1-18.22-.24-9.22,8.71-1.62,21.43-1.93Z"/>
    <path class="cls-14" d="M441.84,559.06c5.89,7.21,13.45,13.32,21.41,18.87l1.51,1.71c-2.79,3.67-7.32,3.21-12.02,8.15,2.39.85,4.44,2.01,4.26,3.68-.13,1.22-1.21,3.43-2.09,4.83l-6.81-2.83-1.85,4.06-6.21-3.97c-5.54-3.55-11.3-6.7-15.58-11.71l-13.87-16.25,15.38-3.76,6.96-1.35,7.62-1.32,1.28-.1Z"/>
    <path class="cls-7" d="M687.03,552.78l-21.88,31.88c-2.23,3.32-4.53,5.33-8.17,8.44l-5.24-7.92,23.62-28.46c1.94-2.34,3.14-5.31,3.74-7.84.95-.02,2.79-1.46,3.17-2.12l4.78,6.03Z"/>
    <path class="cls-6" d="M693.92,541.84l-1.18,14.23-5.7-3.29-4.78-6.03,1.8-17.54,1.59-15.5c1.68-.02,6.19,1.27,6.69,3.04.55,1.96,1.35,6.16,1.05,8.12l-1.54,10.25c1.26,2.26,2.24,4.56,2.06,6.72Z"/>
    <path class="cls-6" d="M434.13,551.92l6.44,7.24-7.62,1.32-6.96,1.35-15.38,3.76-3.56-4.64c.41-1.38,2.06-2.67,3.46-3.17l16.48-5.98,7.14.11Z"/>
    <path class="cls-7" d="M642.49,591.65c.47,5.09-3,9.46-8.08,9.74l-2.14-3.03,10.22-6.71Z"/>
    <path class="cls-5" d="M661.29,357.68l4.14,3.43,5.61,5.75-8,.43-16.15-1.45-12.02-1c-1.07,1.32-2.93,2.29-4.36,2.1l-9.18-1.26c-.98-1.29-2.06-3.09-3.02-2.99l-4.5.46-7.72-1.43c-3.46-.64-12.79-.02-13.58-7.56,6.69,2.14,12.64,3.26,19.29,3.85l11.59,1.03,17.76,1.66,11.71-.63,8.43-2.38Z"/>
    <path class="cls-14" d="M687.84,436.55l.07,12.34-22.26-2.31.5-4.44c-3.17.39-4.16,1.28-5.83,2.93l-6.35-.31-.1-3.8-.12-3.6-.08-2.32c8.44,7.37,22.22.67,34.16,1.51Z"/>
    <path class="cls-5" d="M571.51,336.89l7.75,2.54c-6.08,8.06-14.55,14.36-24.35,17.8l-8.06,1.58,3.47,2.15.45,1.3-4.86-2.15c-4.05-1.79-8.48-1.89-12.32-.26-.49-.26.57-1.19.91-1.49l7.75-2.62,7.43-2.45c2.23-.74,4.94-.21,6.85-1.89l9.12-8.03c1.97-1.74,3.31-4.33,4.11-6.94l1.75.46Z"/>
    <path class="cls-1" d="M653.68,435.04l.08,2.32-4.22.38-.08-5.54c0-.33-.1-1.44-.41-1.47l-1.09-.06-.08-2.55,1.69-.39c.31-.08-.18-1.27-.5-1.29l-1.26-.02-.96-32.34c2.81,3.94,5.15,9.52,5.44,15.01l1.39,25.96Z"/>
    <path class="cls-5" d="M584.44,350.38l1.95.33c.65.11,1.68,2.02,1.03,2.1l-2.55.3c-.65.08-1.07-2.83-.43-2.73Z"/>
    <path class="cls-5" d="M456.59,350.9c3.45.83,7.06,2.5,10.03,4.36,2.37,3.47,5.14,5.78,8.68,7.61,2.13,4.16,6.36,6.06,11.29,5.64,2.32.39,5.69-.3,6.62-2.07-3.65-9.68-11.85-2.99-15.2-5.89-.83-.71-.82-4.16.27-4.44,5.03-1,11.06.67,15.46,2.19,2.3-.37,4.48-.48,6.49-.39l9.2.4c3.82.17,7.3-.67,10.31,2.65l3.42,3.27c-12.31,5.21-24.58,10.73-38.03,14.05-15.21,3.75-30.17,5.14-45.5,7.29-3.01.42-5.99,3.53-6.78,5.71-.42,1.16-.88,2.84-.97,3.88l-3.3,3.81c-2.8,4.07-4.35,8.6-4.65,13.55l-2.9,3.57c-2.64,3.91-1.98,7.03.75,11.8l-27.57-3.54-2.43-2.32,2.72-38.89,1.98,2.28c.58-2.99.84-5.82,1.84-7.5,2.46-4.12,5.68-7.39,9.45-10.82l12.76-11.58c7.63-2.5,15.63-2.9,23.53-3.89,4.24-.53,8.88-1.65,12.52-.77Z"/>
    <path class="cls-13" d="M569.76,336.43c-.8,2.6-2.13,5.2-4.11,6.94l-9.12,8.03c-1.91,1.68-4.62,1.16-6.85,1.89l-7.43,2.45-7.75,2.62c-.34.3-1.4,1.23-.91,1.49l-10.42,4.41-3.42-3.27c-3.01-3.33-6.49-2.48-10.31-2.65l-9.2-.4c-2.02-.09-4.19.02-6.49.39-4.4-1.53-10.43-3.19-15.46-2.19-1.09.28-1.1,3.72-.27,4.44,3.35,2.9,11.56-3.79,15.2,5.89-.93,1.77-4.31,2.46-6.62,2.07-4.93.42-9.16-1.48-11.29-5.64-3.54-1.83-6.31-4.14-8.68-7.61-2.96-1.86-6.58-3.53-10.03-4.36.04-.48,1.46-.96,2.05-1.07l22.62-4.17,26.29-7.92,19.82-6.48c4.35-1.42,9.71-4.04,14.28-2.75l28.1,7.92Z"/>
    <polygon class="cls-5" points="422.53 433.08 421.86 472.24 421.24 472.53 391.31 467.78 391.46 435.17 404.28 434.44 422.53 433.08"/>
    <path class="cls-14" d="M423.94,412.55l-.96,15.36-.03,1.42-.43,3.75-18.25,1.36-12.82.73.33-13.1,2.43,2.32,27.57,3.54c-2.73-4.77-3.39-7.89-.75-11.8l2.9-3.57Z"/>
    <path class="cls-6" d="M391.31,467.78l29.93,4.75.15,3.79-.09.99-21.43,1.93-8.71,1.62c-.96-3.9-2.65-9.48.15-13.07Z"/>
    <path class="cls-5" d="M687.91,448.89l-22.26-2.31.5-4.44c-3.17.39-4.16,1.28-5.83,2.93l-6.35-.31.11,9.36-.09,21-1.48,29.12,13.5-1.61c-3.35,6.8-13.63-1.04-14.4,6.42l-1.22,11.71c-1.05,10.08-4.05,19.38-9.03,27.86l23.57.5,14.16-.25c.95-.02,2.79-1.46,3.17-2.12l1.8-17.54,1.59-15.5.83-11.54-.29-2.69,1.17-23.8.55-26.79Z"/>
    <path class="cls-1" d="M393.27,514.57l.78,9.53c-.6.07-1.69-.07-1.68-.59l.03-2.19c.06-4.21-1.66-6.05-.48-6.49l1.35-.27Z"/>
    <path class="cls-1" d="M393.03,511.49l-1.65-.57c-.34-.12.89-.79,1.05-.83.31-.21.48-.16.5.05l.1,1.35Z"/>
    <path class="cls-7" d="M622.66,562.39l-3.39,3.61c-4.65,4.95-9.9,8.15-15.66,11.53l-17.6,10.35-5.13,3.31-8.34,7.63,2.33,1.85-6.27,3.64-24.9,10.29c-3.14,1.3-10.14,1.36-13.33-.14l-35.9-16.79-17.17-9.93c.24-6.71-5.81-3.17-8.96-8.99l-6.08-5.9-6.1-8.17,22.85,14.21,4.61,4.07c4.02.53,7.83,3.79,11.4,5.4l17.15,7.71,13.1,6.1c1,.46,1.85,3.19,2.79,3.15l3.48-.15c4.27.61,7.62.53,12.09.1,1.48-.14,5.02.65,5.88-.4l3.38-4.11c4.11-3.18,9.28-4.35,13.88-6.64l10.77-5.37,13.51-7.8,20.15-12.17c2.88-3.34,6.87-5.83,11.46-6.37Z"/>
    <path class="cls-1" d="M653.88,440.95l.1,3.8.11,9.36-.09,21-1.48,29.12,13.5-1.61c-3.35,6.8-13.63-1.04-14.4,6.42l-1.22,11.71c-1.05,10.08-4.05,19.38-9.03,27.86-13.14,22.38-44.32,39.19-66.48,52.07l-2.33-1.85,8.34-7.63,5.13-3.31,17.6-10.35c5.75-3.38,11-6.58,15.66-11.53l3.39-3.61,5.49-5.19c1.55-1.46,2.43-2.53,4.1-3.58l5.66-3.58c-1-1.42-2.29-2.78-1.96-3.47l1.45-3.05,7.81-13.61-.47-4.74,3.53-28.58.88-17.91.24-28.5c.03-3.96.4-8.17,4.49-9.22Z"/>
    <path class="cls-1" d="M446.54,558.8c1.35-.08,2.98,2.62,4.2,3.22l5.45,2.67,6.1,8.17,6.08,5.9c3.15,5.82,9.2,2.28,8.96,8.99l-12.55-8.11-1.51-1.71c-7.96-5.55-15.52-11.66-21.41-18.87l4.69-.26Z"/>
    <path class="cls-1" d="M432.03,526.08c-.86.76-1.28,2.98-1.09,4.09l1.18,6.88c.21,1.22-2.35,3.29-3.54,3.33l-3.35-11.15c-3.09-17.37-3.42-34.84-3.94-51.92l.09-.99,5.51,3.04,1.99,36.3c.18,3.33,2.23,7.54,3.14,10.42Z"/>
    <path class="cls-7" d="M446.54,558.8l-4.69.26-1.28.1-6.44-7.24c-2.88-2.98-4.35-7.56-5.55-11.54,1.18-.04,3.74-2.11,3.54-3.33l-1.18-6.88c-.19-1.11.23-3.33,1.09-4.09.94,2.97,1.71,5.78,1.36,8.79-.47,4.11,4.45,6.04,5.44,8.41,3.86,9.31,8.26,6.14,9.67,9.38.25.57-1.51,1.46-2.24,2.08-.8.67-.15,3.06.27,4.06Z"/>
    <path class="cls-3" d="M647.88,428.12l-.07-1.7,1.26.02c.32.02.8,1.21.5,1.29l-1.69.39Z"/>
    <path class="cls-1" d="M422.98,427.91l.96-15.36c.31-4.95,1.86-9.48,4.65-13.55,1.15,4.04.76,8.52.43,12.96l-.77,10.27-.44,6.05-4.84-.36Z"/>
    <polygon class="cls-1" points="421.86 472.24 422.53 433.08 422.95 429.33 428.04 429.72 426.99 472.18 421.86 472.24"/>
    <g>
      <path class="cls-8" d="M550.77,362.25l16.17,6.77,24.14,8.88c14.89,4,29.71,5.98,45.05,7.43,4.09.39,7.84,3.16,8.91,5.97l-1.96,1.98,1.89,68.17-.8,10.84-1.33-.6c-1.22-1.06,2.24-7.76-.02-13.27-1.21-2.95-6.38-2.47-8.57-1.6l-7.24,2.91.2-9.58-.42-14.58-.24-18.92c0-.47-1.64-1.9-1.72-1.26v-.92c1.26-3.15,1.16-8.38-.92-11.7l-21.67-3.81c-12.53-2.21-24.27-5.63-35.9-10.78l-27.21-12.05-9.25,3.76c-13.93,5.66-26.94,12.49-41.66,16.11l-33.07,6.04c-1.25.23-3.41,1.83-3.54,3.27-2.08,22.68-2.65,44.67-2.61,66.97l.02,11.89c.01,6.94.59,13.42,2.69,19.62,2.18,22.79,20.6,34.64,38.71,46.42,5.51,4.56,11.41,7.67,17.8,10.79l29.16,14.25,28.86-13.82c7.57-3.62,14.99-7.72,21.1-12.71,10.75-6.56,20.68-14.12,28.37-24.43,2.63-3.53,4.02-8.03,5.23-11.68l1.25,1c.21.22-.1,1.17-.22,1.7l-1.05,4.59c-2.44,6.12-7.14,12.14-12.44,16.7-12.67,10.88-26.27,20.2-41.37,27.34l-30.34,14.35-34.56-17.27c-13.77-6.88-25.89-16.04-37.16-26.47-7.66-7.09-12.67-15.51-15.07-25.73l-2.14-18.41-.62-30.56c-1.98-3.58-6.93-2.07-9.44-2.48-2.38-.5-3.34-.93-6.16-.41.24-21.36,1.41-42.36,3.16-63.66.03-.34-.26-1.61-.57-1.68l-1.36-.33c.79-2.18,3.76-5.29,6.78-5.71,15.34-2.15,30.3-3.54,45.5-7.29,13.45-3.32,25.72-8.83,38.03-14.05l10.42-4.41c3.84-1.63,8.27-1.52,12.32.26l4.86,2.15Z"/>
      <path class="cls-16" d="M645.05,391.31c.31.81,1.3,2.07,1.79,2.77l.96,32.34.07,1.7.08,2.55-.32,55.23-.88,11.87-.99,11.55c-1.14,13.42-4.63,26.35-13.95,36.13-6.86,7.19-13.54,13.43-21.64,19.22-20.78,14.85-42.91,26.38-66.43,36.21-4.11,1.72-7.83,2.23-11.9.27l-29.97-14.45c-14.88-7.17-28.15-16.48-41.25-26.47-9.66-7.36-16.92-15.73-23.45-26.06-5.14-8.12-6.44-17.78-7.02-27.22l.77-.79-.52-14.33.11-25.54.78.5c.17,8.24-.52,16.88.59,25.32s1.18,16.96,3.87,25.16l3.92,7.76,3.83,6.53c2.9,4.94,7.19,10,11.46,13.69l15.57,13.45c8.4,7.26,17.78,12.45,27.58,17.47l20.3,10.38c6.98,3.57,18.95,8.72,23.42,6.6l19.07-9.05,14.7-7.39,20.17-12.05,19.95-14.14,7.76-7.3,6.48-7.39c3.02-3.45,6.29-7.23,7.74-11.62,2.99-9.04,4.81-17.83,5.33-27.25l.71-12.77.17-4.07.28-7.8.8-10.84-1.89-68.17,1.96-1.98Z"/>
      <path class="cls-12" d="M621.25,469.48l-.57,7.08c-1.02,12.64-1.73,24.86-4.52,37.28-1.38,6.15-5.11,12.45-9.1,16.93l-5.99,6.73-13.72,11.22c-6.11,4.99-13.53,9.09-21.1,12.71l-28.86,13.82-29.16-14.25c-6.4-3.13-12.29-6.23-17.8-10.79-7.08-5.86-15.8-11.05-21.98-18.11l-3.03-5.54c-2.98-3.87-5.95-8-6.91-12.77-2.66-13.33-3.47-26.52-3.45-40.1l5.85,2.76c3.48,1.47,6.07,2.86,9.5,5.51,1.89,1.47,7.49-.11,8.9-2.13l3.23-4.3,13.98,18.94-1.09,20.75c-.17,3.31-.53,5.09,1.61,7.82l1.81,8.87c2.59,4.24,7.74,4,11.58,2.52l26.79-10.29,29.26,11.02c1.84.69,5.36.68,6.65-.33,1.53-1.19,2.41-3.83,3.27-5.75,2.36-5.25,2.85-9.58,2.64-15.22l-.78-20.37,16.12-19.63,2.2-5.92,8.41,1.37c2.29.45,6.46,2.58,8.36,1.7,3.15-1.45,5.15-2.14,7.92-1.54Z"/>
      <path class="cls-2" d="M620.95,512.61l1.72-5.19c2.68-18.23,3.51-36.17,3.11-54.64l-.45-20.94-.49-16.46c.08-.63,1.72.79,1.72,1.26l.24,18.92.42,14.58-.2,9.58,7.24-2.91c2.19-.88,7.36-1.35,8.57,1.6,2.26,5.51-1.2,12.21.02,13.27l1.33.6-.28,7.8c-1.09-.46-2.31.89-2.22,1.94.07.87,1.17,2.38,2.05,2.12l-.71,12.77c-.52,9.42-2.34,18.21-5.33,27.25-1.45,4.4-4.72,8.18-7.74,11.62l-6.48,7.39-7.76,7.3-19.95,14.14-20.17,12.05-14.7,7.39-19.07,9.05c-4.47,2.12-16.44-3.02-23.42-6.6l-20.3-10.38c-9.81-5.02-19.18-10.21-27.58-17.47l-15.57-13.45c-4.27-3.69-8.56-8.75-11.46-13.69l-3.83-6.53-3.92-7.76c-2.68-8.2-2.74-16.59-3.87-25.16s-.42-17.09-.59-25.32l-.78-.5-.11,25.54.52,14.33-.77.79-1.14-18.53-.03-43.29,1.07-25.8.79-12.04,1.04-12.09c.09-1.04.55-2.72.97-3.88l1.36.33c.31.07.6,1.34.57,1.68-1.75,21.3-2.92,42.3-3.16,63.66,2.82-.52,3.77-.1,6.16.41,2.51.4,7.46-1.1,9.44,2.48l.62,30.56,2.14,18.41c2.4,10.22,7.4,18.64,15.07,25.73,11.27,10.43,23.39,19.59,37.16,26.47l34.56,17.27,30.34-14.35c15.11-7.15,28.7-16.46,41.37-27.34,5.3-4.56,10-10.58,12.44-16.7l1.05-4.59c.12-.53.44-1.49.22-1.7l-1.25-1Z"/>
      <path class="cls-11" d="M624.86,414.47v.92s.48,16.46.48,16.46l.45,20.94c.4,18.47-.44,36.41-3.11,54.64l-1.72,5.19c-1.21,3.65-2.59,8.15-5.23,11.68-7.69,10.31-17.61,17.87-28.37,24.43l13.72-11.22,5.99-6.73c3.99-4.49,7.72-10.79,9.1-16.93,2.79-12.41,3.5-24.64,4.52-37.28l.57-7.08-.66-10.83-1.65-43.02c-1.17-.84-3.05-1.9-4.12-2.12l-30.31-6.36c-15.84-5.03-30.21-12.18-45.48-19.57l-23.54,11.01c-8.85,4.14-17.74,7.95-27.3,9.91l-30.3,6.21-2.8,34.67-.03,24.31c-.01,13.58.79,26.77,3.45,40.1.95,4.77,3.92,8.91,6.91,12.77l3.03,5.54c6.17,7.07,14.89,12.25,21.98,18.11-18.11-11.78-36.52-23.63-38.71-46.42l-.67-7.03-.22-5.78v-1.72s-.16-16.87-.16-16.87l.39-32.31,1.76-30.4c.15-2.61,2.26-4.12,4.92-4.46,18.99-2.43,37.34-6.03,54.76-13.91l22.29-10.08c3.09-1.4,6.12-1.08,9.3.39,14.5,6.73,28.72,13.23,44.17,17.63l34.26,6.7c2.25,1.77,2.59,6.02,2.36,8.53Z"/>
      <path class="cls-16" d="M624.86,414.47c.23-2.51-.11-6.76-2.36-8.53l-34.26-6.7c-15.45-4.4-29.67-10.9-44.17-17.63-3.17-1.47-6.2-1.79-9.3-.39l-22.29,10.08c-17.42,7.88-35.77,11.48-54.76,13.91-2.65.34-4.77,1.85-4.92,4.46l-1.76,30.4-.39,32.31-1.65-.11c-.03-22.3.53-44.29,2.61-66.97.13-1.43,2.3-3.04,3.54-3.27l33.07-6.04c14.72-3.62,27.72-10.45,41.66-16.11l9.25-3.76,27.21,12.05c11.64,5.15,23.37,8.58,35.9,10.78l21.67,3.81c2.07,3.33,2.17,8.55.93,11.7Z"/>
      <path class="cls-2" d="M450.66,472.39l.15,16.87c-.27-.13-.57.86-.72,1.3-.09.27.25.31.73.42l.22,5.78.67,7.03c-2.1-6.2-2.68-12.68-2.69-19.62l-.02-11.89,1.65.11Z"/>
      <path class="cls-3" d="M431.89,395.19l-1.04,12.09-.79,12.04-1.07,25.8.03,43.29,1.14,18.53c.58,9.44,1.88,19.1,7.02,27.22,6.53,10.32,13.79,18.69,23.45,26.06,13.1,9.99,26.37,19.3,41.25,26.47l29.97,14.45c4.07,1.96,7.79,1.45,11.9-.27,23.53-9.83,45.65-21.35,66.43-36.21,8.1-5.79,14.78-12.02,21.64-19.22,9.33-9.78,12.81-22.71,13.95-36.13l.99-11.55.88-11.87.32-55.23,1.09.06c.31.04.41,1.14.41,1.47l.08,5.54,4.22-.38.12,3.6c-4.09,1.06-4.45,5.27-4.49,9.22l-.24,28.5-.88,17.91-3.53,28.58.47,4.74-7.81,13.61-1.45,3.05c-.33.7.96,2.05,1.96,3.47l-5.66,3.58c-1.67,1.06-2.55,2.12-4.1,3.58l-5.49,5.19c-4.59.54-8.58,3.03-11.46,6.37l-20.15,12.17-13.51,7.8-10.77,5.37c-4.6,2.29-9.76,3.46-13.88,6.64l-3.38,4.11c-.86,1.05-4.4.26-5.88.4-4.47.43-7.81.51-12.09-.1l-3.48.15c-.94.04-1.79-2.68-2.79-3.15l-13.1-6.1-17.15-7.71c-3.57-1.6-7.38-4.87-11.4-5.4l-4.61-4.07-22.85-14.21-5.45-2.67c-1.22-.6-2.85-3.29-4.2-3.22-.42-1-1.08-3.39-.27-4.06.74-.62,2.49-1.51,2.24-2.08-1.42-3.24-5.81-.07-9.67-9.38-.98-2.37-5.91-4.3-5.44-8.41.34-3.01-.42-5.82-1.36-8.79s-2.96-7.09-3.14-10.42l-1.99-36.3-5.51-3.04-.15-3.79.62-.28,5.13-.06,1.05-42.46-5.09-.39.03-1.42,4.84.36.44-6.05.77-10.27c.33-4.44.72-8.92-.43-12.96l3.3-3.81Z"/>
      <path class="cls-8" d="M643.9,480.1l-.17,4.07c-.88.26-1.98-1.25-2.05-2.12-.08-1.06,1.13-2.41,2.22-1.94Z"/>
      <path class="cls-9" d="M621.25,469.48c-2.77-.6-4.78.09-7.92,1.54-1.9.88-6.08-1.25-8.36-1.7l-8.41-1.37c.76-2.05-1.03-8.91-1.19-8.99l-.9-.13-.11-2.66c.21-.15.7-.55.74-.56.04-.01-.21-.87-.27-1.16-.06-.24-.62.89-.55.78-.51-.57-2.28-2.44-3.32-2.68l-10.16-2.3s.14-1.23-.16-1.32l-2.11-.65-17.49-3.76c-4.88-1.05-.02-8.05-7.69-10.99l-8-14.28c-.72-1.29-2.37-2.74-3.52-3.52-2.33-1.57-5.26-1.32-7.48.43l-5.1,4-8.84,13.88-7.8,10.68-17.8,3.65c-.32.06-1.27.4-1.35.71l-.14,1.24-8.54,1.8c-1.94.41-3.42,3.09-3.6,4.76l-.35,3.18c-2.54,5.55-1.89,10.58,1.72,15.48l-3.23,4.3c-1.41,2.02-7.01,3.6-8.9,2.13-3.43-2.65-6.01-4.04-9.5-5.51l-5.85-2.76.03-24.31,2.8-34.67,30.3-6.21c9.57-1.96,18.46-5.77,27.3-9.91l23.54-11.01c15.27,7.38,29.64,14.54,45.48,19.57l30.31,6.36c1.07.22,2.95,1.28,4.12,2.12l1.65,43.02.66,10.83Z"/>
      <path class="cls-11" d="M596.56,467.95l-2.2,5.92-16.12,19.63.78,20.37c.22,5.63-.28,9.96-2.64,15.22-.86,1.92-1.74,4.56-3.27,5.75-1.29,1-4.82,1.02-6.65.33l-29.26-11.02-26.79,10.29c-3.84,1.47-8.98,1.72-11.58-2.52l-1.81-8.87c-2.14-2.73-1.79-4.52-1.61-7.82l1.09-20.75-13.98-18.94c-3.62-4.9-4.27-9.93-1.72-15.48l18.32,22.54c1.07,1.31,2.99,2.64,4.55,3.33l-1.94,12.81-2.73,19.74c-.17,1.24.54,3.96,1.5,4.71,1.12.87,3.57,1.67,5.55,2.17l31.4-12.93,17.2,7.26c5.28,2.23,10.83,5.06,16.44,5.56,3.51.31,4.81-4.89,4.18-7.07l.27-1.99-.57-.67-1.98-22.81.05-.93-.34-4.32,19.02-22.91c1.41-1.7,2.79-4.02,2.72-5.71l.9.13c.16.08,1.95,6.94,1.19,8.99Z"/>
      <path class="cls-16" d="M450.82,490.98c-.48-.1-.82-.14-.73-.42.15-.45.45-1.43.72-1.3v1.72Z"/>
      <g>
        <path class="cls-8" d="M541.81,415.73l12.72,23.55c1.63,2.93.22,5.2,4.75,6.2l21.49,4.76,10.16,2.3c1.05.24,2.81,2.11,3.32,2.68l.09.94-2.78.6-11.4,3.07-43.25,11.93-42.01-12.18-12.27-2.86-1.48.14c.18-1.68,1.67-4.36,3.6-4.76l8.54-1.8,24.29-5.24,16.74-28.91c2.22-1.74,5.15-1.99,7.48-.43Z"/>
        <path class="cls-16" d="M594.46,458.82c.07,1.69-1.31,4.01-2.72,5.71l-19.02,22.91-1.89-2.3c-.41-.64.47-2.5,1.01-3.12l11.08-12.74,6.05-7.45c1.27-1.57,2.44-3.25,2.59-5.07l2.78-.6.11,2.66Z"/>
        <path class="cls-12" d="M493.3,450.31l.14-1.24c.08-.31,1.03-.64,1.35-.71l17.8-3.65,7.8-10.68,8.84-13.88,5.1-4-16.74,28.91-24.29,5.24Z"/>
        <path class="cls-16" d="M482.63,456.72l18,21.8,3.56,3.24c.4.37.9,1.99.6,2.45l-1.11,1.71c-1.56-.69-3.48-2.02-4.55-3.33l-18.32-22.54.35-3.18,1.48-.14Z"/>
        <path class="cls-12" d="M580.78,450.24l-21.49-4.76c-4.53-1-3.12-3.27-4.75-6.2l-12.72-23.55c1.15.77,2.8,2.22,3.52,3.52l8,14.28c7.67,2.93,2.81,9.94,7.69,10.99l17.49,3.76,2.11.65c.3.09.2,1.3.16,1.32Z"/>
        <path class="cls-11" d="M594.35,456.16l-.09-.94c-.06.11.5-1.02.55-.78.07.29.32,1.14.27,1.16-.04.01-.53.41-.74.56Z"/>
        <path class="cls-2" d="M591.57,456.76c-.15,1.82-1.32,3.5-2.59,5.07l-6.05,7.45-11.08,12.74c-.54.62-1.42,2.48-1.01,3.12l1.89,2.3.34,4.32c-.14.36-.4,1.03-.05.93l1.98,22.81.57.67-.27,1.99-4.25,2.98-33.71-14.87-32.26,14.31-6.05-2.11,2.73-19.74,1.94-12.81,1.11-1.71c.3-.46-.19-2.08-.6-2.45l-3.56-3.24-18-21.8,12.27,2.86,42.01,12.18,43.25-11.93,11.4-3.07Z"/>
        <path class="cls-16" d="M575.29,518.17c.63,2.18-.67,7.39-4.18,7.07-5.61-.5-11.16-3.33-16.44-5.56l-17.2-7.26-31.4,12.93c-1.98-.49-4.43-1.29-5.55-2.17-.96-.75-1.68-3.47-1.5-4.71l6.05,2.11,32.26-14.31,33.71,14.87,4.25-2.98Z"/>
        <path class="cls-16" d="M573.01,492.7c-.35.1-.1-.57.05-.93l-.05.93Z"/>
        <path class="cls-16" d="M575.56,516.18l-.57-.67.57.67Z"/>
      </g>
    </g>
    <path class="cls-4" d="M381.04,495.96l.03-1.07-.03,1.07Z"/>
    <path class="cls-15" d="M381.24,425.42l-.13-1.25.13,1.25Z"/>
  </g>
</svg>