<?xml version="1.0" encoding="UTF-8"?>
<svg id="_ÍCONES" data-name="ÍCONES" xmlns="http://www.w3.org/2000/svg" viewBox="380 400 310 290">
  <defs>
    <style>
      .cls-1 {
        fill: #638099;
      }

      .cls-2 {
        fill: #4a609f;
      }

      .cls-3 {
        fill: #6b8a2c;
      }

      .cls-4 {
        fill: #65842c;
      }

      .cls-5 {
        fill: #91ae35;
      }

      .cls-6 {
        fill: #2f4272;
      }

      .cls-7 {
        fill: #3d528e;
      }
    </style>
  </defs>
  <g id="som">
    <g>
      <path class="cls-7" d="M528.38,437.23c.64,1.53,2.02,4.31,2.11,6.07l1.66,31.71.28,2.8.05,2.35c-.32.22-.58.96-.51,1.35l.54,1.36.02,1.55-.54,1.24c-.05.22.19.41.57.57l.04,3.28.1,7.72.09,14.33-.2,29.88.9,1.68c-.04,35.85-.28,71.64-2.32,107.8-.16,2.92-.86,5.71-1.68,7.84.07-1.75-.52-3.87-1.33-5.67l-5.37-11.94-4.36,3.8c-4.67-4.1-9.47.9-16.55-3.19-6.34-3.67-9.83,6.13-14.1,4.89s-7.4-4.51-10.7-7.14l-10.48-8.34-39.37-31.81-7.56-5.47-.98-45.46-10.88-.05.51,41.13c.02,1.42-1.39,3.49-2.87,3.41l-39.21-2.01-12.37-7.79-2.97-34.07-3.04,1.5-1.29-2.52c.25-13.87.9-28,4.29-41.38l3.12,7.39-2.63,32.75,13.99,1.53,42.14.04,1.47-45.19c.16-4.82,2.94-10.16,3.94-14.68,4.23-.27,8.58-3.42,12.23-6.39l57.61-46.88c-.76.95-1.15,4.34.07,4.77,2.28.81,4.8-1.7,6.1-3.39l3.43-4.46,4.26,8.84c.9,1.87.61,3.82.6,6.31l-.2,80.4c10.33-1.14,19.55,4.68,27.25,1.57l-2.35-78.03c-.1-3.17-.08-4.5,1.77-7.24l4.69-6.74Z"/>
      <path class="cls-6" d="M529.48,658.77c-2.13,5.55-7.25,9.29-12.97,11.73-9.71,3.32-19.8,2.84-29.13-1.36l-61.89-49.54c-3.94-3.15-8.34-5.69-13.38-6.02l-37.44-2.48c-13.27-.88-22.05-5.19-24.61-18.61-2.85-14.92-3.76-29.69-3.49-44.47l1.29,2.52,3.04-1.5,2.97,34.07,12.37,7.79,39.21,2.01c1.48.08,2.89-1.99,2.87-3.41l-.51-41.13,10.88.05.98,45.46,7.56,5.47,39.37,31.81,10.48,8.34c3.3,2.63,6.32,5.86,10.7,7.14s7.76-8.55,14.1-4.89c7.08,4.09,11.88-.91,16.55,3.19l4.36-3.8,5.37,11.94c.81,1.8,1.4,3.92,1.33,5.67Z"/>
      <path class="cls-2" d="M412.89,488.48c-1,4.52-3.78,9.86-3.94,14.68l-1.47,45.19-42.14-.04-13.99-1.53,2.63-32.75-3.12-7.39c1.75-6.9,7.2-12.75,14.42-13.76l17.94-2.51,29.66-1.89Z"/>
      <path class="cls-2" d="M528.38,437.23l-4.69,6.74c-1.85,2.74-1.87,4.08-1.77,7.24l2.35,78.03c-7.7,3.11-16.92-2.71-27.25-1.57l.2-80.4c0-2.48.3-4.43-.6-6.31l-4.26-8.84-3.43,4.46c-1.3,1.69-3.82,4.2-6.1,3.39-1.23-.44-.83-3.82-.07-4.77,12.63-13.56,34.68-12.82,45.65,2.02Z"/>
      <polygon class="cls-1" points="533.48 543.13 532.58 541.45 532.78 511.57 533.53 513.29 533.48 543.13"/>
      <path class="cls-1" d="M532.68,497.24l-.1-7.72.1,7.72Z"/>
      <path class="cls-1" d="M532.42,477.81l-.28-2.8.28,2.8Z"/>
      <path class="cls-1" d="M532.5,482.88l-.54-1.36c-.07-.39.19-1.13.51-1.35l.03,2.71Z"/>
      <path class="cls-1" d="M532.54,486.24c-.37-.16-.62-.35-.57-.57l.54-1.24.02,1.82Z"/>
    </g>
    <g>
      <path class="cls-5" d="M656.54,602.77l-5.17.77c-5.91,14.06-14.31,26.69-24.5,37.97-2.97,1.82-7.7,2.76-11.15,1.23-5.43-2.41-7.47-7.8-6.07-12.88l10.12-11.89c18.4-26.86,25.75-61.21,19.37-92.81l-7.74-26.79c-1.75-6.06-5.38-12.66-9.09-17.69l-9.48-12.88c-2.5-3.4-7.63-5.78-11.26-8.16.81-6.74,5.9-12.01,12.35-13.13,7.41-1.28,12.47,1.92,17.21,7.56,15.28,18.16,25.55,39.95,30.55,63.22l3.61,25.75c1.3,20.42-1.96,40.84-8.74,59.71Z"/>
      <path class="cls-5" d="M609.93,555.84c-.4-.11-1.78.03-1.71.55l.42,2.99c-1.89,8.61-5.19,16.71-8.68,24.46l-2.92.7-11.76,17.97-2.95.04c-9.43.38-8.84-7.31-13.14-9.23,0-.22.04-.89.12-1.08,2.03-4.81,11.06-10.82,15.24-29.72,3.02-13.68,2.59-26.86-3.11-40.21-3.48-8.16-7.67-16.02-14.91-21.59-1.57-1.21-2.95-2.86-3.41-4.45,1.58-4.44,5.35-8.12,9.38-9.15,4.69-1.21,10.05-.92,13.49,2.67,17.05,17.77,25.08,41.82,23.95,66.06Z"/>
      <path class="cls-4" d="M639.13,525.16c-1.01.16-1.17,2.24-1.02,3.34,1.92,14.61,2.6,29.86-2.5,43.8l-4.13,11.27c-.42,1.13-1.51,2.92-2.27,3.73l1.54-5.89c7.09-29.56,4.04-61.41-11.15-87.71-4.44-7.69-9.2-14.54-14.64-21.15-3.31-4.02-3.95-8.25-3.39-12.9,3.63,2.38,8.76,4.76,11.26,8.16l9.48,12.88c3.71,5.04,7.34,11.64,9.09,17.69l7.74,26.79Z"/>
      <path class="cls-4" d="M584.54,562.52c-.84-.08-2.34,1.77-2.58,2.77-1.49,6.12-4.59,11.44-8.58,15.89l-4.53,5.05c16.1-23.49,14.28-53.98-4.35-75.94-3.2-3.77-2.79-10.05-1.38-14.02.46,1.59,1.84,3.24,3.41,4.45,7.24,5.57,11.42,13.43,14.91,21.59,5.7,13.35,6.13,26.53,3.11,40.21Z"/>
      <path class="cls-3" d="M609.65,629.86l-5.82,2.32.85-1.85,14.67-21.01c4.65-6.66,6.99-14.79,9.87-22.02.76-.81,1.85-2.6,2.27-3.73l4.13-11.27c5.1-13.94,4.42-29.19,2.5-43.8-.14-1.1.01-3.18,1.02-3.34,6.38,31.6-.97,65.95-19.37,92.81l-10.12,11.89Z"/>
      <path class="cls-4" d="M609.65,629.86c-1.4,5.08.63,10.47,6.07,12.88,3.44,1.53,8.17.59,11.15-1.23l4.89,1.79,2.19.2c-6.62,7.88-10.64,13.51-23.52,9.57-8.44-3.81-11.27-13.62-6.59-20.89l5.82-2.32Z"/>
      <path class="cls-4" d="M569.3,592.25c-.08.19-.12.85-.12,1.08.03,2.38,1.45,6.45,3.31,8,2.99,2.48,6.32,3.12,10.17,2.8l-.35-1.57,2.95-.04,1.4,5.39,2.12.38-.9.9-.86,1.16c-4.75,5.14-13.19,5.39-18.88,1.24-5.85-4.27-7.59-12.37-4.21-18.5l5.36-.85Z"/>
      <path class="cls-3" d="M633.94,643.5l-2.19-.2-4.89-1.79c10.19-11.28,18.59-23.92,24.5-37.97l5.17-.77c-5.26,14.64-12.53,28.76-22.6,40.74Z"/>
      <path class="cls-4" d="M609.93,555.84c-.83,17.84-6.78,35.98-18.46,49.37l-3.18-4.46c4.6-5.62,8.81-10.87,11.66-16.92,3.5-7.75,6.79-15.85,8.68-24.46l-.42-2.99c-.07-.51,1.3-.66,1.71-.55Z"/>
      <path class="cls-3" d="M584.54,562.52c-4.18,18.91-13.21,24.91-15.24,29.72l-5.36.85c1.35-2.45,2.97-4.7,4.91-6.87l4.53-5.05c3.99-4.45,7.09-9.77,8.58-15.89.24-1,1.75-2.84,2.58-2.77Z"/>
      <path class="cls-3" d="M599.95,583.84c-2.85,6.05-7.06,11.3-11.66,16.92l3.18,4.46-2.68,3.07-2.12-.38-1.4-5.39,11.76-17.97,2.92-.7Z"/>
      <path class="cls-3" d="M587.03,610.35l.86-1.16-.86,1.16Z"/>
      <path class="cls-3" d="M582.32,602.55l.35,1.57c-3.85.33-7.19-.31-10.17-2.8-1.87-1.55-3.28-5.62-3.31-8,4.3,1.92,3.71,9.61,13.14,9.23Z"/>
    </g>
  </g>
</svg>